<?xml version="1.0" encoding="utf-8"?>
<svg viewBox="5.356 23.431 491.296 397.575" xmlns="http://www.w3.org/2000/svg">
  <defs>
    <linearGradient gradientUnits="userSpaceOnUse" x1="132.14" y1="175.63" x2="132.14" y2="244.8" id="gradient-1" gradientTransform="matrix(1.402773, 0, 0, 1.402773, -27.1731, 9.902588)">
      <stop offset="0" style="stop-color: rgba(216, 222, 233, 1)"/>
      <stop offset="1" style="stop-color: rgba(151, 167, 196, 1)"/>
    </linearGradient>
    <linearGradient gradientUnits="userSpaceOnUse" x1="101.38" y1="133.95" x2="101.38" y2="193.9" id="gradient-0" gradientTransform="matrix(1.402773, 0, 0, 1.402773, -27.1731, 9.902588)">
      <stop offset="0" style="stop-color: rgba(216, 222, 233, 1)"/>
      <stop offset="1" style="stop-color: rgba(151, 167, 196, 1)"/>
    </linearGradient>
    <linearGradient gradientUnits="userSpaceOnUse" x1="184.51" y1="162.69" x2="184.51" y2="240.26" id="gradient-2" gradientTransform="matrix(1.402773, 0, 0, 1.402773, -27.1731, 9.902588)">
      <stop offset="0" style="stop-color: rgba(216, 222, 233, 1)"/>
      <stop offset="1" style="stop-color: rgba(151, 167, 196, 1)"/>
    </linearGradient>
    <linearGradient gradientUnits="userSpaceOnUse" x1="258.625" y1="237.14" x2="258.625" y2="270.11" id="gradient-3" gradientTransform="matrix(1.402773, 0, 0, 1.402773, -27.1731, 9.902588)">
      <stop offset="0" style="stop-color: rgba(216, 222, 233, 1)"/>
      <stop offset="1" style="stop-color: rgba(151, 167, 196, 1)"/>
    </linearGradient>
  </defs>
  <path d="M 222.791 130.079 L 15.335 250.717 C 6.54 255.828 6.574 268.542 15.399 273.605 C 15.441 273.63 15.486 273.656 15.531 273.68 L 269.434 415.796 C 275.67 419.284 283.257 419.348 289.549 415.964 L 484.661 311.022 C 495.441 305.214 495.892 289.914 485.471 283.482 C 485.366 283.416 485.26 283.353 485.152 283.29 Z" style="fill: rgb(236, 239, 244);"/>
  <path d="M 192.768 315.272 C 204.383 303.349 216.868 292.309 227.921 279.923 L 183.243 256.272 L 88.458 306.94 C 106.174 316.227 132.112 336.09 157.432 353.301 C 169.215 340.621 180.69 327.673 192.768 315.272 Z" opacity="0.32" style="fill: url(#gradient-1);"/>
  <path d="M 120.707 262.107 C 140.22 247.673 159.663 233.126 180.017 219.94 L 138.186 197.805 L 50.064 252.204 C 63.432 259.218 74.85 268.518 93.788 281.901 C 102.738 275.251 111.701 268.714 120.707 262.107 Z" opacity="0.32" style="fill: url(#gradient-0);"/>
  <path d="M 231.666 346.933 C 252.708 335.612 297.85 291.65 318.639 280.078 L 239.354 238.12 L 144.667 288.802 C 166.648 300.277 201.269 328.122 231.666 346.933 Z" opacity="0.32" style="fill: url(#gradient-2);"/>
  <path d="M 274.34 221.526 L 247.686 234.361 C 243.429 236.421 242.997 242.317 246.91 244.975 C 247.022 245.05 247.135 245.122 247.252 245.19 L 310.447 282.041 C 313.286 283.699 316.928 282.827 318.709 280.063 L 334.07 256.215" style="fill: rgb(94, 129, 172);"/>
  <path d="M 408.276 153.168 L 190.58 27.761 C 185.949 24.984 180.049 28.263 179.961 33.661 C 179.96 33.737 179.96 33.814 179.961 33.89 L 179.961 167.154 C 179.962 169.105 181.005 170.908 182.695 171.881 L 414.407 305.635 C 416.165 306.651 418.362 305.382 418.362 303.352 C 418.362 303.351 418.362 303.35 418.362 303.349 L 418.362 170.619 C 418.363 163.417 414.518 156.762 408.276 153.168 Z" style="fill: rgb(129, 161, 193);"/>
  <path d="M 194.367 39.558 L 400.575 158.204 C 405.058 160.782 407.823 165.559 407.827 170.731 L 407.827 266.274 C 407.83 270.285 403.494 272.8 400.014 270.805 L 189.696 150.181 C 188.1 149.262 187.116 147.561 187.115 145.719 L 187.115 43.752 C 187.116 40.03 191.141 37.703 194.367 39.558 Z" fill="#fff" style=""/>
  <ellipse cx="221.35" cy="149.29" rx="2.245" ry="0.014" transform="matrix(0.981959, -0.189095, 0.189095, 0.981959, 37.739655, 114.610985)" fill="#ab643c" style=""/>
  <ellipse cx="392.173" cy="161.122" rx="2.245" ry="2.441" fill="#659fe4" style=""/>
  <ellipse cx="385.018" cy="157.573" rx="2.245" ry="2.441" fill="#c5e9ff" style=""/>
  <polyline points="160.448 270.594 160.434 271.926 161.107 272.768" fill="#adcee1" style=""/>
  <path d="M 187.325 254.462 L 161.205 270.496 C 160.126 271.109 160.115 272.662 161.186 273.29 C 161.192 273.294 161.199 273.298 161.205 273.302 L 200.651 295.831 C 201.771 296.477 203.151 296.477 204.271 295.831 L 230.306 280.638 C 232.2 279.095 232.074 276.177 230.306 276.051 L 191.029 254.406 C 189.874 253.756 188.46 253.777 187.325 254.462 Z" style="fill: rgb(94, 129, 172);"/>
  <path d="M 187.325 253.355 L 161.205 269.417 C 160.125 270.029 160.114 271.582 161.186 272.211 C 161.193 272.214 161.198 272.218 161.205 272.222 L 200.693 294.667 C 201.813 295.313 203.193 295.313 204.313 294.667 L 230.306 279.53 C 231.646 278.76 231.65 276.83 230.314 276.055 C 230.311 276.054 230.308 276.053 230.306 276.051 L 191.029 253.299 C 189.874 252.647 188.46 252.67 187.325 253.355 Z" style="fill: rgb(229, 233, 240);"/>
  <path d="M 188.391 251.179 C 188.391 251.179 199.346 216.307 199.291 216.307 C 199.235 216.307 199.628 214.75 201.564 215.648 L 242.973 240.253 C 242.973 240.253 244.979 241.08 244.587 242.946 C 244.194 244.811 233.869 277.075 233.869 277.075 C 233.432 277.705 232.637 277.977 231.905 277.749 C 230.643 277.356 189.36 253.144 189.36 253.144 C 188.564 252.853 188.137 251.988 188.391 251.179 Z" style="fill: rgb(94, 129, 172);"/>
  <polygon points="199.964 218.817 242.384 243.773 233.448 273.344 190.481 249.118 199.964 218.817" style="fill: rgb(255, 255, 255);"/>
  <path d="M 185.711 257.044 L 176.159 262.935 C 175.409 263.381 175.409 264.468 176.159 264.913 L 210.274 284.552 C 211.316 285.153 212.6 285.153 213.641 284.552 C 215.844 283.276 219.631 280.989 221.96 279.572 C 222.86 279.026 222.86 277.719 221.96 277.173 L 187.634 257.029 C 187.04 256.679 186.301 256.684 185.711 257.044 Z" fill="#68e1fd" style=""/>
  <path d="M 186.16 273.148 L 198.07 279.909 C 198.87 280.36 198.88 281.507 198.089 281.974 C 198.083 281.978 198.077 281.981 198.07 281.985 L 191.056 286.067 C 190.566 286.35 189.962 286.35 189.471 286.067 L 177.281 279.053 C 176.611 278.679 176.598 277.721 177.256 277.328 C 177.265 277.323 177.273 277.318 177.281 277.313 L 184.604 273.106 C 185.095 272.846 185.685 272.861 186.16 273.148 Z" style="fill: rgb(94, 129, 172);"/>
  <path d="M 185.711 257.044 L 176.159 262.935 C 175.409 263.381 175.409 264.468 176.159 264.913 L 210.274 284.552 C 211.316 285.153 212.6 285.153 213.641 284.552 C 215.844 283.276 219.631 280.989 221.96 279.572 C 222.86 279.026 222.86 277.719 221.96 277.173 L 187.634 257.029 C 187.04 256.679 186.301 256.684 185.711 257.044 Z" style="paint-order: fill; fill: rgb(94, 129, 172);"/>
  <path d="M 186.16 273.148 L 198.07 279.909 C 198.87 280.36 198.88 281.507 198.089 281.974 C 198.083 281.978 198.077 281.981 198.07 281.985 L 191.056 286.067 C 190.566 286.35 189.962 286.35 189.471 286.067 L 177.281 279.053 C 176.611 278.679 176.598 277.721 177.256 277.328 C 177.265 277.323 177.273 277.318 177.281 277.313 L 184.604 273.106 C 185.095 272.846 185.685 272.861 186.16 273.148 Z" opacity="0.1" style="fill: none;"/>
  <path d="M 140.107 250.787 C 134.505 255.611 130.267 261.822 127.819 268.799 C 123.499 280.709 134.286 300.192 134.286 300.192 L 151.12 286.923" style="fill: rgb(180, 142, 173);"/>
  <path d="M 126.613 315.707 C 126.629 321.15 130.109 325.979 135.268 327.715 C 138.711 328.872 142.346 329.347 145.972 329.118 C 153.406 328.642 159.915 325.162 165.386 320.365 C 164.348 307.179 160.63 297.92 157.446 293.502 L 137.134 283.683 C 137.036 285.519 126.332 297.92 126.585 313.029 C 126.594 313.973 126.603 314.865 126.613 315.707 Z" style="fill: rgb(163, 190, 140);"/>
  <path d="M 157.081 270.819 L 135.549 269.766 L 131.831 295.647 C 138.242 300.067 155.174 297.401 159.017 296.742 C 157.881 288.171 157.993 279.376 157.081 270.819 Z" style="fill: rgb(180, 142, 173);"/>
  <path d="M 188.854 267.256 L 186.694 269.15 C 188.51 268.11 190.383 267.173 192.305 266.343 C 193.61 265.754 194.325 267.859 193.034 268.448 L 192.376 268.757 C 193.067 268.495 193.763 268.243 194.465 267.999 C 195.275 267.718 196.085 268.42 195.923 269.261 C 195.849 269.652 195.571 269.973 195.195 270.103 C 193.369 270.729 191.576 271.445 189.822 272.25 C 191.399 271.747 193.006 271.345 194.634 271.043 C 196.036 270.777 196.163 273.007 194.774 273.26 C 192.923 273.604 191.103 274.097 189.331 274.733 C 189.898 274.736 190.462 274.831 191 275.013 C 191.645 275.182 193.301 275.28 193.596 275.925 C 193.904 276.623 193.442 277.418 192.683 277.496 L 184.337 278.351 C 183.509 278.826 182.753 279.416 182.093 280.105 C 181.249 279.102 180.354 278.142 179.414 277.229 C 178.582 276.415 177.706 275.647 176.79 274.929 C 177.614 274.144 178.455 273.381 179.315 272.642 C 179.497 272.39 179.946 272.517 180.452 272.095 C 183.257 269.683 183.917 269.514 186.975 266.639 C 189.233 264.394 190.173 266.105 188.854 267.256 Z" style="fill: rgb(255, 183, 162);"/>
  <path d="M 150.124 255.473 C 150.124 255.473 157.965 257.591 161.15 262.669 C 163.139 266.161 164.892 269.784 166.395 273.512 L 180.648 270.188 C 180.648 270.188 184.786 275.027 187.578 278.492 C 187.578 278.492 173.662 288.311 166.395 289.924 C 159.129 291.538 151.414 279.123 151.414 279.123 C 151.414 279.123 149.815 284.257 150.124 278.773" style="fill: rgb(180, 142, 173);"/>
  <path d="M 155.861 271.969 C 153.593 270.132 151.875 267.705 150.895 264.956 C 149.955 261.756 151.133 258.937 152.298 255.949 C 153.483 252.997 154.176 249.868 154.346 246.691 C 154.444 243.563 154.08 240.449 153.869 237.335 C 153.838 237.201 153.838 237.062 153.869 236.928 C 152.831 233.407 150.671 230.433 146.434 230.082 C 135.478 229.156 134.862 241.304 134.946 246.214 C 135.029 251.124 135.549 254.477 131.915 256.553 C 128.283 258.629 125.659 264.016 129.11 268.392 C 132.561 272.768 129.461 271.197 127.161 275.055 C 124.859 278.913 125.449 283.794 130.19 285.548 C 134.931 287.301 156.983 284.005 159.017 281.956 C 159.735 281.137 160.108 280.071 160.055 278.983 C 159.557 276.213 158.066 273.718 155.861 271.969 Z" style="fill: rgb(235, 203, 139);"/>
  <path d="M 159.943 300.207 C 162.594 299.632 188.293 297.583 194.283 306.519 C 200.273 315.455 167.63 328.178 145.972 329.202 C 124.312 330.226 148.314 302.704 159.943 300.207 Z" style="fill: rgb(163, 190, 140);"/>
  <polyline points="127.385 167.841 127.385 211.958 161.556 231.696 189.387 215.143 189.387 174.153" style="fill: rgb(141, 163, 121);"/>
  <polygon points="161.556 231.696 161.556 188.153 189.387 171.853 189.387 215.143 161.556 231.696" style="fill: rgb(148, 173, 126);"/>
  <polygon points="155.524 151.177 127.385 167.841 161.556 188.153 189.387 171.853 155.524 151.177" style="fill: rgb(163, 190, 140);"/>
  <polygon points="131.846 175.093 131.846 184.226 157.446 198.843 157.446 189.879 131.846 175.093" style="fill: rgb(67, 76, 94);"/>
  <ellipse cx="129.54" cy="130.41" rx="0.687" ry="1.094" transform="matrix(0.955998, -0.293373, 0.293373, 0.955998, -7.558326, 106.181564)" style="fill: rgb(208, 135, 112);"/>
  <ellipse cx="127.98" cy="129.5" rx="0.687" ry="1.094" transform="matrix(0.955998, -0.293373, 0.293373, 0.955998, -8, 105.314117)" style="fill: rgb(235, 203, 139);"/>
  <line x1="149.941" y1="190.553" x2="134.118" y2="181.463" fill="none" stroke-miterlimit="10" stroke-width="0.25" style="stroke: rgb(236, 239, 244);"/>
  <polygon points="131.242 187.901 131.242 197.032 156.843 211.636 156.843 202.686 131.242 187.901" style="fill: rgb(67, 76, 94);"/>
  <ellipse cx="129.11" cy="139.54" rx="0.687" ry="1.094" transform="matrix(0.955998, -0.293373, 0.293373, 0.955998, -10.432549, 110.126633)" style="fill: rgb(208, 135, 112);"/>
  <ellipse cx="127.55" cy="138.63" rx="0.687" ry="1.094" transform="matrix(0.955998, -0.293373, 0.293373, 0.955998, -10.860207, 109.273201)" style="fill: rgb(235, 203, 139);"/>
  <line x1="149.338" y1="203.359" x2="133.515" y2="194.269" fill="none" stroke-miterlimit="10" stroke-width="0.25" style="stroke: rgb(236, 239, 244);"/>
  <polygon points="131.242 200.681 131.242 209.812 156.843 224.415 156.843 215.465 131.242 200.681" style="fill: rgb(67, 76, 94);"/>
  <ellipse cx="129.11" cy="148.65" rx="0.687" ry="1.094" transform="matrix(0.955998, -0.293373, 0.293373, 0.955998, -13.115523, 114.209587)" style="fill: rgb(208, 135, 112);"/>
  <ellipse cx="127.55" cy="147.74" rx="0.687" ry="1.094" transform="matrix(0.955998, -0.293373, 0.293373, 0.955998, -13.543179, 113.342133)" style="fill: rgb(235, 203, 139);"/>
  <line x1="149.338" y1="216.139" x2="133.515" y2="207.049" fill="none" stroke-miterlimit="10" stroke-width="0.25" style="stroke: rgb(236, 239, 244);"/>
  <polyline points="189.387 187.017 161.683 203.359 127.385 183.426" fill="none" stroke-miterlimit="10" stroke-width="0.25" style="stroke: rgb(67, 76, 94);"/>
  <polyline points="189.387 199.796 161.683 216.139 127.385 196.219" fill="none" stroke-miterlimit="10" stroke-width="0.25" style="stroke: rgb(67, 76, 94);"/>
  <path d="M 442.209 150.685 L 442.209 221.133 C 442.212 227.169 435.68 230.945 430.45 227.93 C 430.414 227.908 430.377 227.887 430.342 227.866 L 363.387 187.929 C 361.014 186.516 359.559 183.958 359.558 181.196 L 359.558 112.039 C 359.581 106.005 366.126 102.259 371.341 105.291 L 438.295 143.952 C 440.701 145.344 442.19 147.906 442.209 150.685 Z" style="fill: rgb(163, 190, 140);"/>
  <path d="M 341.055 377.233 C 352.6 369.546 364.341 362.14 376.012 354.663 L 359.431 342.557 L 295.227 369.363 C 302.984 373.432 313.463 381.049 324.489 388.806 C 329.959 384.878 335.444 380.965 341.055 377.233 Z" opacity="0.32" style="fill: url(#gradient-3);"/>
  <path d="M 382.31 309.297 C 382.215 308.9 382.038 308.528 381.792 308.202 C 381.339 307.651 380.799 307.178 380.192 306.8 C 372.042 301.287 360.75 299.786 352.137 305.159 C 350.173 306.393 347.241 309.184 348.405 311.822 C 349.079 313.351 351.127 314.249 352.614 314.865 C 357.353 316.743 362.304 318.034 367.357 318.71 C 369.181 319.018 371.032 319.327 372.87 319.495 C 375.453 319.744 377.985 318.66 379.589 316.619 C 380.823 314.992 382.886 311.696 382.31 309.297 Z" style="fill: rgb(181, 116, 96);"/>
  <path d="M 348.167 310.615 C 348.167 310.615 355.602 317.349 368.452 316.367 C 381.301 315.385 382.296 309.353 382.296 309.353 C 382.296 309.353 378.972 351.941 377.218 352.67 C 375.465 353.4 368.9 356.57 365.73 356.808 C 362.56 357.048 352.544 353.035 352.291 351.927 C 352.039 350.819 348.167 310.615 348.167 310.615 Z" style="fill: rgb(208, 135, 112);"/>
  <path d="M 350.51 248.556 C 350.117 247.757 348.897 248.458 349.303 249.258 C 358.098 266.989 359.811 286.95 361.396 306.337 C 361.465 307.221 362.868 307.235 362.798 306.337 C 361.199 286.684 359.431 266.512 350.51 248.556 Z" style="fill: rgb(163, 190, 140);"/>
  <path d="M 349.388 248.725 C 349.388 248.725 351.842 257.927 349.303 262.529 C 346.765 267.13 344.674 268.041 347.705 273.751 C 350.734 279.46 358.842 280.231 359.375 284.608 C 359.909 288.984 355.504 256.539 349.388 248.725 Z" style="fill: rgb(163, 190, 140);"/>
  <path d="M 377.513 265.334 C 370.739 279.5 366.92 294.898 366.29 310.587 C 366.29 311.682 367.961 311.667 368.003 310.587 C 368.597 295.195 372.314 280.086 378.93 266.176 C 379.463 265.207 377.99 264.338 377.513 265.334 Z" style="fill: rgb(163, 190, 140);"/>
  <path d="M 378.72 269.823 C 378.72 268.897 378.509 267.017 378.607 265.46 L 377.625 266.077 C 374.287 274.199 369.293 293.277 367.806 299.112 C 369.84 294.736 378.158 294.133 380.599 287.89 C 381.676 285.241 381.726 282.285 380.74 279.6 C 379.536 276.473 378.854 273.17 378.72 269.823 Z" style="fill: rgb(163, 190, 140);"/>
  <polyline points="394.416 142.745 372.715 158.695 392.173 186.008" fill="none" stroke-miterlimit="10" stroke-width="4" style="stroke: rgb(148, 173, 126);"/>
  <polyline points="413.62 154.262 429.584 185.46 407.126 195.938" fill="none" stroke-miterlimit="10" stroke-width="4" style="stroke: rgb(148, 173, 126);"/>
  <line x1="198.673" y1="58.214" x2="325.147" y2="130.079" fill="none" stroke-miterlimit="10" stroke-width="4" style="stroke: rgb(163, 190, 140);"/>
  <line x1="199.137" y1="77.012" x2="219.602" y2="88.64" fill="none" stroke-miterlimit="10" stroke-width="4" style="stroke: rgb(191, 97, 106);"/>
  <line x1="225.677" y1="92.569" x2="339.484" y2="155.132" fill="none" stroke-miterlimit="10" stroke-width="4" style="stroke: rgb(94, 129, 172);"/>
  <line x1="198.673" y1="94.139" x2="242.384" y2="118.253" fill="none" stroke-miterlimit="10" stroke-width="4" style="stroke: rgb(208, 135, 112);"/>
  <line x1="249.637" y1="122.826" x2="345.474" y2="174.084" fill="none" stroke-miterlimit="10" stroke-width="4" style="stroke: rgb(163, 190, 140);"/>
</svg>