<svg xmlns="http://www.w3.org/2000/svg" version="1.1" xmlns:xlink="http://www.w3.org/1999/xlink" xmlns:svgjs="http://svgjs.dev/svgjs" viewBox="0 0 800 800" opacity="0.11"><defs><linearGradient x1="50%" y1="0%" x2="50%" y2="100%" id="ccchaos-grad"><stop stop-color="#81a1c1" stop-opacity="1" offset="0%"></stop><stop stop-color="#88c0d0" stop-opacity="1" offset="100%"></stop></linearGradient></defs><g stroke-width="2" stroke="url(#ccchaos-grad)" fill="none" stroke-linecap="round"><path d="M421.3 126.95C431.67 124.77 442.06 122.29 452.43 119.74 462.77 116.84 473.03 114.43 483.09 112.74 493.03 111.52 502.63 111.46 511.74 112.66 520.52 114.78 528.6 118.25 535.8 123 542.46 128.58 548.04 135.2 552.44 142.67 556.26 150.51 558.92 158.84 560.53 167.43 561.94 175.88 562.76 184.31 563.35 192.59 564.72 200.38 566.72 207.9 569.88 215.13 574.98 221.77 581.97 228.17 591.1 234.39 602.48 240.12 615.76 245.8 630.47 251.51 645.9 256.91 661.16 262.49 675.12 268.31 686.92 273.98 695.48 280.01 699.97 286.41 700.55 292.77 696.85 299.57 689.41 306.79 679.97 314.01 669.27 321.67 658.94 329.75 651.26 337.83 646.95 346.32 647.01 355.19 652.14 364.07 661.5 373.32 673.95 382.94 688.11 392.56 701.31 402.33 711.66 412.25 718.3 422.2 719.73 432.33 715.81 442.64 707.39 453.03 695.07 463.65 680.31 474.5 664.81 485.47 649.87 496.7 636.8 508.16 626.68 519.72 619.82 531.48 616.23 543.35 616.01 555.18 618.1 566.97 621.61 578.53 626.31 589.77 630.62 600.5 633.76 610.5 635.79 619.74 635.58 627.89 632.97 634.72 628.41 640.44 621.51 644.61 612.65 647.13 602.3 648.51 590.64 648.36 578.14 646.82 565.06 644.74 551.77 641.85 538.58 638.56 525.47 635.89 512.76 633.7 500.56 632.45 488.68 633.02 477.32 635.22 466.44 639.25 455.86 645.51 445.64 653.49 435.71 662.88 425.94 673.53 416.33 684.53 406.84 695.14 397.4 704.97 388 712.97 378.63 718.42 369.26 721.31 360.14 720.91 351.28 717.34 342.44 711.31 333.91 702.85 325.74 692.59 317.61 681.5 309.9 669.93 302.63 658.57 295.43 648.2 288.69 639.01 282.43 631.31 276.17 625.54 270.31 621.42 264.82 618.8 256.39 617.94 239.4 620.85 230.18 622.43 223.3 623.17 216.07 622.91 208.48 621.5 200.29 619.35 191.86 615.87 183.35 611.09 174.7 605.48 166.34 598.67 158.54 590.84 151.25 582.35 144.91 573.06 139.72 563.18 135.41 552.9 132.32 542.24 130.39 531.37 129.04 520.32 128.44 509.21 128.36 498.13 128 487.02 127.57 476.01 126.86 465.18 125.23 454.36 123.14 443.73 120.65 433.34 117.49 422.95 114.4 412.79 111.73 402.88 109.39 392.96 108.19 383.51 108.32 374.51 109.41 365.48 111.89 356.88 115.59 348.7 119.89 340.46 124.89 332.59 130.27 325.07 135.34 317.44 140.23 310.09 144.75 302.98 148.4 295.67 151.59 288.49 154.41 281.41 156.54 274 158.66 266.57 160.99 259.06 163.31 251.13 166.31 243.03 170.14 234.74 174.55 226.02 180 217.11 186.48 208.06 193.69 198.73 201.83 189.39 210.74 180.18 220.16 171.02 230.09 162.25 240.36 154.06 250.78 146.35 261.32 139.52 271.86 133.74 282.29 128.77 292.64 125 302.86 122.51 312.87 120.82 322.78 120.27 332.62 120.75 342.27 121.58 351.93 123.03 361.64 124.87 371.24 126.31 380.99 127.64 390.91 128.66 400.79 128.67 410.91 128.11 421.29 126.95" stroke-dasharray="10 7" transform="rotate(0, 400, 400)"></path><path d="M422.39 138.33C432.39 136.19 442.23 133.76 451.85 131.25 461.44 128.39 470.75 125.95 479.68 124.16 488.47 122.75 496.75 122.41 504.4 123.24 511.76 124.9 518.33 127.86 524.01 132.04 529.28 137.05 533.59 143.12 536.92 150.07 539.95 157.48 542.18 165.46 543.76 173.82 545.56 182.17 547.24 190.61 549.16 199 552.19 207.04 556.18 214.88 561.54 222.48 568.78 229.57 577.79 236.43 588.63 243.09 601.19 249.27 615.04 255.34 629.62 261.37 644.23 267.05 658.01 272.83 670 278.75 679.56 284.47 685.8 290.45 688.18 296.73 687.07 302.91 682.27 309.46 674.4 316.4 665.17 323.29 655.2 330.59 645.97 338.31 639.44 346 636.15 354.12 636.88 362.64 642.21 371.15 651.3 380.08 663.14 389.42 676.54 398.77 689.1 408.32 699.14 418.06 705.97 427.83 708.11 437.82 705.35 448.02 698.4 458.26 687.59 468.75 674.15 479.44 659.54 490.19 644.91 501.15 631.47 512.26 620.3 523.38 611.85 534.57 606.31 545.73 603.93 556.74 603.99 567.54 605.82 577.95 609.28 587.94 613.03 597.28 616.29 605.76 619.74 616.77 615.29 631.06 606.82 633.89 599.04 634.4 589.72 633.66 579.26 631.83 567.95 629.75 556.05 627.17 543.87 624.45 531.47 622.53 519.16 621.24 507.1 620.97 495.17 622.46 483.6 625.48 472.46 630.17 461.51 636.83 450.94 644.97 440.74 654.28 430.66 664.6 420.86 675.11 411.32 685.15 401.83 694.4 392.53 701.91 383.41 707.05 374.29 709.85 365.56 709.61 357.2 706.44 348.84 701 340.88 693.25 333.33 683.73 325.78 673.31 318.65 662.28 311.95 651.25 305.24 640.95 298.93 631.55 292.99 623.38 286.94 616.88 281.17 611.86 275.61 608.23 269.74 606.25 263.92 605.31 258.04 605.1 251.66 605.83 245.05 606.69 238.16 607.35 230.67 608.11 222.86 608.17 214.77 607.33 206.25 606.01 197.65 603.57 189.13 599.98 180.68 595.7 172.7 590.3 165.42 583.89 158.76 576.87 153.14 569 148.68 560.43 145.08 551.46 142.61 541.98 141.22 532.16 140.26 522.12 139.94 511.89 139.99 501.57 139.67 491.17 139.2 480.78 138.38 470.47 136.63 460.15 134.39 449.95 131.77 439.92 128.51 429.9 125.32 420.05 122.54 410.41 120.09 400.77 118.76 391.55 118.73 382.73 119.65 373.89 121.95 365.42 125.5 357.31 129.69 349.14 134.64 341.28 140.05 333.69 145.25 325.98 150.35 318.47 155.15 311.13 159.14 303.57 162.65 296.09 165.73 288.63 168.06 280.86 170.22 273.03 172.43 265.09 174.45 256.79 176.94 248.33 180.08 239.71 183.63 230.77 188.09 221.72 193.5 212.61 199.59 203.35 206.62 194.2 214.49 185.29 222.94 176.55 232.03 168.3 241.61 160.72 251.5 153.68 261.66 147.56 271.96 142.49 282.32 138.2 292.69 135.07 303 133.13 313.24 131.89 323.39 131.69 333.45 132.41 343.39 133.37 353.29 134.86 363.15 136.66 372.95 138.03 382.76 139.25 392.62 140.15 402.46 140.1 412.38 139.49 422.38 138.33" stroke-dasharray="9 1" transform="rotate(4.04, 400, 400)"></path><path d="M419.54 149.7C429.08 147.61 438.29 145.24 447.14 142.79 455.95 139.97 464.32 137.52 472.19 135.65 479.93 134.09 487.06 133.49 493.5 133.97 499.72 135.2 505.18 137.64 509.81 141.27 514.23 145.69 517.87 151.17 520.8 157.55 523.72 164.46 526.19 172.02 528.43 180.03 531.19 188.16 534.22 196.49 537.85 204.88 542.72 213.03 548.72 221.08 556.11 228.96 565.16 236.43 575.73 243.69 587.69 250.75 600.79 257.38 614.58 263.87 628.46 270.28 641.77 276.33 653.76 282.39 663.61 288.53 670.92 294.44 674.99 300.52 675.49 306.82 672.99 312.98 667.38 319.45 659.34 326.23 650.49 332.95 641.37 340.04 633.25 347.5 627.83 354.93 625.48 362.77 626.81 371.01 632.28 379.23 641.09 387.87 652.32 396.95 664.98 406.02 676.9 415.32 686.62 424.82 693.56 434.35 696.31 444.1 694.61 454.04 689.04 464.01 679.73 474.19 667.67 484.52 654.13 494.86 640.06 505.33 626.59 515.84 614.74 526.29 605.04 536.68 597.82 546.91 593.45 556.9 591.48 566.54 591.45 575.67 593.32 584.31 595.99 592.22 598.78 599.2 602.74 613.23 588.84 619.26 577.14 616.84 567.96 614.98 557.89 612.86 547.22 610.83 536.13 609.72 524.8 609.34 513.47 610 502.05 612.34 490.82 616.1 479.86 621.34 468.97 628.31 458.4 636.53 448.18 645.69 438.04 655.65 428.21 665.66 418.7 675.12 409.23 683.81 400.03 690.84 391.11 695.67 382.19 698.38 373.73 698.29 365.72 695.51 357.68 690.62 350.08 683.55 342.9 674.76 335.67 665.04 328.85 654.59 322.41 643.96 315.88 633.83 309.66 624.35 303.72 615.85 297.57 608.77 291.57 602.97 285.66 598.43 279.37 595.43 273.02 593.47 266.53 592.33 259.53 592.2 252.28 592.39 244.76 592.6 236.74 593.13 228.49 593.21 220.08 592.66 211.44 591.86 202.87 590.15 194.58 587.48 186.53 584.29 179.09 580.09 172.48 574.94 166.57 569.25 161.72 562.72 158.03 555.45 155.11 547.77 153.25 539.52 152.33 530.82 151.71 521.88 151.59 512.63 151.72 503.19 151.38 493.63 150.82 483.97 149.86 474.3 147.97 464.59 145.6 454.92 142.85 445.34 139.5 435.75 136.22 426.27 133.35 416.93 130.81 407.58 129.35 398.58 129.16 389.92 129.9 381.24 132.01 372.86 135.36 364.77 139.4 356.61 144.26 348.69 149.65 340.97 154.94 333.13 160.22 325.42 165.28 317.8 169.6 309.99 173.46 302.19 176.87 294.36 179.49 286.28 181.83 278.1 184.07 269.82 185.96 261.25 188.12 252.55 190.74 243.75 193.58 234.74 197.18 225.69 201.6 216.69 206.59 207.66 212.48 198.84 219.21 190.37 226.52 182.17 234.57 174.54 243.2 167.64 252.25 161.32 261.71 155.92 271.44 151.57 281.36 147.95 291.41 145.42 301.5 143.99 311.62 143.17 321.72 143.27 331.74 144.18 341.74 145.24 351.66 146.74 361.49 148.47 371.29 149.75 381.03 150.86 390.7 151.65 400.37 151.52 409.99 150.87 419.53 149.7" stroke-dasharray="5 4" transform="rotate(8.08, 400, 400)"></path><path d="M413.24 161.08C422.25 159.03 430.83 156.73 438.94 154.34 447.01 151.58 454.56 149.14 461.54 147.21 471.56 145.11 488.17 146.66 494.73 150.7 498.84 154.53 502.41 159.4 505.56 165.19 508.96 171.53 512.23 178.58 515.6 186.16 519.7 193.95 524.34 202.05 529.78 210.3 536.44 218.44 544.25 226.57 553.32 234.61 563.7 242.34 575.24 249.92 587.7 257.32 600.72 264.35 613.86 271.25 626.54 278.03 638.21 284.47 648.19 290.88 655.85 297.31 661.01 303.48 663.11 309.76 662 316.2 658.41 322.47 652.28 328.97 644.3 335.72 636 342.39 627.79 349.37 620.78 356.68 616.42 363.95 614.94 371.58 616.8 379.59 622.36 387.58 630.87 395.97 641.51 404.77 653.43 413.56 664.72 422.57 674.1 431.77 681.07 440.97 684.34 450.38 683.6 459.93 679.31 469.49 671.45 479.2 660.82 488.98 648.48 498.74 635.21 508.52 622.01 518.24 609.84 527.84 599.26 537.27 590.69 546.41 584.57 555.25 580.67 563.65 578.74 571.44 585.14 597.35 579.78 604.33 571.37 602.04 564.39 600.55 556.36 599.03 547.51 597.76 538.11 597.49 528.22 598.01 518.06 599.56 507.67 602.66 497.24 607.05 486.89 612.75 476.51 619.94 466.31 628.15 456.37 637.1 446.46 646.67 436.82 656.16 427.48 665.06 418.16 673.19 409.13 679.76 400.39 684.3 391.64 686.9 383.37 686.95 375.55 684.53 367.7 680.17 360.26 673.76 353.22 665.69 346.11 656.67 339.34 646.83 332.87 636.67 326.26 626.8 319.87 617.37 313.64 608.68 307.16 601.15 300.73 594.71 294.28 589.39 287.45 585.46 280.49 582.53 273.35 580.44 265.76 579.39 257.96 578.79 249.93 578.4 241.56 578.48 233.08 578.35 224.58 577.81 216.05 577.23 207.76 575.97 199.9 573.93 192.45 571.55 185.71 568.3 179.89 564.19 174.79 559.65 170.75 554.3 167.81 548.22 165.56 541.77 164.24 534.7 163.72 527.12 163.37 519.29 163.38 511.07 163.51 502.56 163.11 493.92 162.41 485.08 161.29 476.12 159.25 467.11 156.75 458.03 153.88 448.96 150.45 439.87 147.11 430.8 144.17 421.78 141.54 412.77 139.97 404 139.61 395.5 140.17 386.97 142.07 378.66 145.19 370.57 149.05 362.41 153.77 354.41 159.08 346.55 164.41 338.57 169.82 330.66 175.09 322.79 179.73 314.74 183.96 306.68 187.74 298.56 190.72 290.24 193.36 281.82 195.77 273.32 197.7 264.61 199.73 255.83 202.03 247.02 204.35 238.09 207.26 229.21 210.83 220.48 214.82 211.83 219.62 203.48 225.21 195.57 231.34 188.01 238.22 181.07 245.74 174.91 253.72 169.33 262.21 164.67 271.09 161.01 280.25 158.03 289.65 156.07 299.19 155.1 308.86 154.65 318.58 155 328.27 156.05 338.01 157.18 347.69 158.65 357.27 160.3 366.86 161.47 376.34 162.46 385.67 163.14 395.02 162.94 404.22 162.25 413.23 161.08" stroke-dasharray="1 1" transform="rotate(12.12, 400, 400)"></path><path d="M404.6 172.45C413.05 170.46 421.02 168.23 428.49 165.91 435.93 163.22 442.84 160.81 449.2 158.83 458.37 156.54 473.87 157.09 480.38 160.37 484.68 163.62 488.69 167.87 492.57 173.03 496.84 178.76 501.27 185.23 506.05 192.3 511.62 199.65 517.88 207.39 525 215.38 533.2 223.37 542.41 231.44 552.65 239.51 563.79 247.37 575.68 255.14 588 262.79 600.38 270.14 612.39 277.36 623.49 284.47 633.28 291.29 641.17 298.04 646.68 304.77 649.86 311.25 650.24 317.79 647.84 324.41 643.46 330.87 637.08 337.48 629.37 344.29 621.73 351 614.5 357.96 608.57 365.18 605.22 372.36 604.53 379.85 606.84 387.67 612.45 395.46 620.65 403.61 630.7 412.12 641.91 420.62 652.57 429.3 661.57 438.11 668.52 446.93 672.21 455.89 672.32 464.93 669.21 473.97 662.75 483.06 653.54 492.16 642.5 501.18 630.21 510.14 617.56 518.94 605.41 527.57 594.32 535.93 584.76 543.9 577.2 551.56 571.6 558.69 567.85 565.16 568.45 587.36 554.02 586.2 544.04 585.33 536.5 585.89 528.28 587.26 519.59 589.62 510.58 593.4 501.31 598.32 491.92 604.36 482.42 611.68 472.93 619.82 463.56 628.51 454.17 637.65 444.94 646.62 435.92 654.96 426.92 662.54 418.13 668.67 409.59 672.93 401.04 675.43 392.92 675.6 385.19 673.5 377.42 669.65 370.01 663.87 362.93 656.5 355.75 648.18 348.84 638.99 342.14 629.35 335.27 619.84 328.53 610.55 321.86 601.8 314.93 593.99 307.98 587.05 300.94 581.08 293.57 576.33 286.04 572.51 278.34 569.51 270.3 567.54 262.11 566.1 253.8 564.99 245.32 564.46 236.85 563.91 228.54 563.15 220.36 562.53 212.58 561.43 205.36 559.74 195.7 556.59 181.91 546.18 178.07 538.93 176.41 533.57 175.56 527.58 175.36 521.04 175.19 514.28 175.26 507.07 175.34 499.48 174.83 491.77 173.97 483.76 172.67 475.55 170.47 467.28 167.83 458.85 164.86 450.32 161.37 441.78 157.98 433.17 154.98 424.51 152.29 415.85 150.61 407.34 150.1 399.01 150.47 390.65 152.13 382.44 155.02 374.35 158.65 366.22 163.18 358.17 168.36 350.19 173.66 342.11 179.15 334.05 184.59 326 189.5 317.8 194.08 309.56 198.25 301.27 201.64 292.82 204.65 284.31 207.35 275.74 209.48 267.06 211.56 258.36 213.74 249.69 215.77 241.02 218.19 232.48 221.12 224.17 224.29 216.03 228.14 208.28 232.68 201.03 237.66 194.17 243.37 187.99 249.72 182.59 256.52 177.76 263.88 173.83 271.7 170.84 279.84 168.46 288.33 167.01 297.05 166.45 305.96 166.31 315.01 166.87 324.1 168.02 333.29 169.17 342.47 170.6 351.56 172.14 360.7 173.2 369.72 174.06 378.58 174.62 387.46 174.35 396.15 173.62 404.59 172.45" stroke-dasharray="8 6" transform="rotate(16.16, 400, 400)"></path><path d="M395.15 183.82C403.04 181.89 410.47 179.74 417.44 177.5 424.39 174.89 430.87 172.52 436.88 170.53 445.64 168.07 461.18 167.73 468.25 170.29 473.11 172.97 477.91 176.6 482.8 181.12 488.18 186.21 493.89 192.06 500.1 198.54 507.06 205.37 514.72 212.64 523.19 220.25 532.5 227.96 542.61 235.83 553.41 243.78 564.73 251.62 576.36 259.45 587.97 267.21 599.23 274.76 609.73 282.21 619 289.57 626.8 296.69 632.62 303.73 636.14 310.73 637.55 317.51 636.51 324.3 633.12 331.13 628.24 337.79 621.85 344.56 614.59 351.46 607.73 358.25 601.49 365.23 596.63 372.42 594.21 379.55 594.23 386.93 596.93 394.56 602.55 402.18 610.41 410.09 619.89 418.28 630.4 426.47 640.44 434.77 649.04 443.14 655.92 451.5 659.94 459.93 660.78 468.37 658.75 476.79 653.61 485.18 645.81 493.47 636.11 501.68 624.95 509.73 613.08 517.52 601.27 525.13 590.03 532.39 579.86 539.19 571.22 545.69 564.2 551.62 558.82 556.89 553.43 573.53 544.02 573.25 536.64 573.56 530.89 574.94 524.37 577.1 517.24 580.18 509.76 584.53 501.85 589.88 493.65 596.17 485.27 603.53 476.74 611.53 468.16 619.9 459.52 628.6 450.91 637.04 442.37 644.82 433.83 651.88 425.4 657.57 417.1 661.55 408.8 663.95 400.81 664.23 393.13 662.44 385.41 659.05 377.96 653.87 370.73 647.19 363.41 639.57 356.26 631.04 349.23 621.98 342.04 612.89 334.89 603.86 327.74 595.17 320.37 587.21 312.93 579.93 305.37 573.45 297.57 568.02 289.63 563.41 281.57 559.57 273.31 556.71 264.98 554.41 256.66 552.52 248.33 551.28 240.16 550.16 232.28 549 224.69 548.11 217.61 546.92 211.2 545.33 202.85 542.62 191.63 533.97 188.81 527.91 187.44 520.91 187.18 503.8 187.18 493.94 186.51 487.11 185.47 479.93 183.97 472.46 181.62 464.93 178.85 457.16 175.79 449.21 172.25 441.23 168.83 433.1 165.79 424.83 163.05 416.56 161.28 408.35 160.62 400.22 160.79 392.08 162.22 384 164.84 375.97 168.21 367.91 172.51 359.87 177.51 351.84 182.72 343.75 188.21 335.63 193.75 327.49 198.89 319.26 203.78 310.98 208.32 302.65 212.14 294.24 215.58 285.78 218.66 277.33 221.12 268.83 223.41 260.38 225.66 252.04 227.62 243.77 229.79 235.72 232.3 227.96 234.87 220.46 237.98 213.39 241.65 206.88 245.63 200.79 250.25 195.38 255.48 190.75 261.09 186.66 267.27 183.42 273.95 181.06 280.95 179.23 288.36 178.24 296.07 178.03 304.01 178.14 312.16 178.86 320.43 180.06 328.83 181.21 337.28 182.56 345.69 183.99 354.18 184.92 362.59 185.65 370.85 186.09 379.15 185.75 387.26 184.99 395.14 183.83" stroke-dasharray="4 5" transform="rotate(20.200000000000003, 400, 400)"></path><path d="M386.56 195.2C393.91 193.33 400.9 191.26 407.52 189.11 414.13 186.59 420.38 184.27 426.28 182.29 435.03 179.71 451.45 178.59 459.48 180.47 465.1 182.61 470.85 185.64 476.84 189.52 483.31 193.96 490.21 199.15 497.65 204.98 505.71 211.21 514.41 217.94 523.74 225.06 533.64 232.35 544.05 239.89 554.83 247.58 565.73 255.26 576.57 262.99 587.01 270.72 596.79 278.32 605.53 285.87 612.85 293.36 618.67 300.67 622.55 307.91 624.28 315.1 624.22 322.11 622.06 329.11 618 336.1 612.9 342.96 606.72 349.87 600.06 356.85 594.04 363.74 588.8 370.74 584.96 377.89 583.4 384.99 584.05 392.26 587.06 399.71 592.64 407.15 600.17 414.8 609.08 422.65 618.91 430.5 628.33 438.38 636.52 446.25 643.27 454.12 647.53 461.96 649 469.73 647.94 477.47 644.02 485.09 637.57 492.54 629.24 499.89 619.31 507 608.41 513.79 597.21 520.39 586.16 526.59 575.74 532.29 566.41 537.72 558.32 542.58 551.61 546.78 538.23 559.63 531 561.02 525.69 562.51 521.46 564.64 516.46 567.51 510.79 571.22 504.8 576.04 498.27 581.7 491.31 588.14 484.17 595.46 476.72 603.25 469.06 611.27 461.32 619.49 453.45 627.4 445.51 634.64 437.56 641.18 429.58 646.47 421.59 650.18 413.61 652.47 405.8 652.85 398.18 651.34 390.53 648.39 383.03 643.78 375.65 637.76 368.2 630.82 360.81 622.97 353.47 614.51 346 605.92 338.51 597.24 330.97 588.73 323.27 580.75 315.49 573.28 307.61 566.43 299.58 560.47 291.47 555.21 283.32 550.64 275.11 546.96 266.94 543.84 258.9 541.17 250.99 539.16 243.37 537.38 236.18 535.68 226.25 533.6 210.69 528.49 205.46 524.98 201.95 520.85 199.21 509.66 199.26 502.62 199.22 497.61 199.18 492.12 198.99 486.18 198.13 480.15 196.88 473.72 195.19 466.95 192.69 460.12 189.81 453 186.67 445.61 183.1 438.21 179.66 430.57 176.6 422.71 173.83 414.86 171.97 406.99 171.17 399.11 171.15 391.24 172.34 383.35 174.67 375.45 177.76 367.53 181.78 359.59 186.55 351.63 191.61 343.62 197.02 335.57 202.59 327.48 207.89 319.35 213.02 311.17 217.89 302.98 222.13 294.75 226 286.53 229.52 278.35 232.4 270.21 235.04 262.17 237.53 254.31 239.61 246.6 241.77 239.15 244.09 232.07 246.33 225.29 248.93 218.98 251.97 213.25 257.02 205.63 270.22 194.77 278.33 191.69 284.17 190.34 290.45 189.74 297.09 189.82 303.94 190.14 311.07 190.95 318.39 192.18 325.85 193.28 333.43 194.54 341.05 195.83 348.75 196.63 356.44 197.23 364.05 197.55 371.68 197.14 379.2 196.36 386.55 195.2" stroke-dasharray="4 5" transform="rotate(24.24, 400, 400)"></path><path d="M380.33 206.57C387.21 204.77 393.85 202.79 400.24 200.73 406.64 198.31 412.82 196.06 418.81 194.1 424.84 192.16 430.75 190.75 436.58 189.96 442.56 189.5 448.56 189.82 454.68 190.93 461.07 192.56 467.72 195.02 474.68 198.28 482.06 202.05 489.88 206.57 498.17 211.73 506.92 217.3 516.15 223.41 525.79 229.94 535.72 236.72 545.88 243.79 556.06 251.09 566.06 258.46 575.68 265.95 584.61 273.5 592.68 281 599.56 288.5 604.94 295.97 608.88 303.33 611.02 310.65 611.25 317.92 610.01 325.07 607.06 332.18 602.62 339.27 597.54 346.25 591.77 353.25 585.82 360.26 580.69 367.21 576.43 374.21 573.55 381.29 572.77 388.33 573.97 395.47 577.24 402.72 582.74 409.95 589.91 417.32 598.26 424.8 607.44 432.28 616.25 439.71 624.01 447.05 630.58 454.38 635.01 461.61 637 468.69 636.78 475.72 633.98 482.57 628.82 489.17 621.85 495.68 613.2 501.88 603.41 507.71 593.06 513.38 582.49 518.61 572.17 523.33 562.52 527.84 553.75 531.79 546.04 535.14 526.96 544.47 520.36 547.31 518.54 547.85 515.96 549.56 507 556.73 500.62 562.7 495.91 567.88 490.62 573.76 484.82 580.25 478.85 587.45 472.47 594.97 465.76 602.61 458.96 610.34 451.9 617.71 444.63 624.42 437.34 630.47 429.88 635.35 422.28 638.8 414.68 640.99 407.13 641.44 399.63 640.2 392.12 637.66 384.64 633.59 377.19 628.2 369.7 621.94 362.19 614.76 354.66 606.94 347.05 598.89 339.38 590.64 331.65 582.42 323.83 574.55 315.94 567.02 308.01 559.97 300.03 553.62 292.04 547.85 284.1 542.67 276.22 538.28 268.5 534.41 261.02 530.99 253.78 528.22 246.94 525.74 240.6 523.42 232.08 520.57 219.36 514.69 215.39 511.19 212.07 502.35 211.23 484.32 210.74 476.6 209.67 471.24 208.2 465.47 206.31 459.33 203.67 453.15 200.69 446.62 197.49 439.79 193.91 432.93 190.48 425.79 187.42 418.38 184.63 410.96 182.7 403.46 181.76 395.9 181.56 388.34 182.5 380.72 184.54 373.05 187.31 365.36 191.03 357.62 195.51 349.84 200.34 342.04 205.62 334.19 211.13 326.31 216.5 318.42 221.81 310.51 226.93 302.61 231.54 294.73 235.84 286.9 239.8 279.17 243.15 271.53 246.23 264.05 249.08 256.8 251.47 249.75 253.8 243.02 256.17 236.69 259.51 227.93 267.56 213.79 272.62 208.7 278.36 204.98 292.43 201.64 300.65 201.81 306.43 202.27 312.53 203.15 318.88 204.35 325.36 205.38 332.03 206.53 338.82 207.67 345.68 208.33 352.61 208.8 359.55 209.01 366.51 208.53 373.45 207.72 380.32 206.58" stroke-dasharray="5 3" transform="rotate(28.28, 400, 400)"></path><path d="M377.58 217.95C384.04 216.21 390.41 214.32 396.68 212.36 402.95 210.06 409.16 207.89 415.31 205.97 421.53 204.04 427.77 202.56 434.05 201.62 440.49 200.94 447.08 200.95 453.86 201.67 460.89 202.83 468.2 204.75 475.85 207.42 483.8 210.55 492.12 214.39 500.8 218.87 509.74 223.75 518.96 229.18 528.37 235.07 537.8 241.23 547.19 247.75 556.32 254.54 565.04 261.46 573.14 268.56 580.36 275.78 586.65 283.02 591.67 290.31 595.24 297.62 597.52 304.88 598.18 312.13 597.22 319.35 595.13 326.49 591.69 333.6 587.15 340.68 582.3 347.69 577.08 354.68 571.93 361.66 567.7 368.58 564.4 375.52 562.4 382.48 562.32 389.41 563.99 396.38 567.45 403.39 572.84 410.38 579.65 417.43 587.45 424.52 595.98 431.61 604.19 438.56 611.51 445.36 617.87 452.14 622.38 458.75 624.79 465.14 625.3 471.49 623.51 477.59 619.54 483.4 613.88 489.12 606.54 494.49 597.95 499.47 588.61 504.32 578.78 508.72 568.87 512.64 559.27 516.4 550.2 519.64 541.87 522.36 531.3 525.93 516.47 530.47 511.79 531.66 503.44 536.31 492.84 547.97 487.69 554.59 483.92 560.02 479.59 566.01 474.74 572.47 469.77 579.47 464.33 586.68 458.48 593.9 452.56 601.14 446.28 607.98 439.69 614.16 433.07 619.73 426.18 624.23 419.03 627.43 411.89 629.51 404.67 630.03 397.41 629.02 390.14 626.85 382.81 623.29 375.44 618.51 368.04 612.9 360.58 606.4 353.07 599.23 345.52 591.77 337.91 584.01 330.25 576.16 322.57 568.52 314.87 561.08 307.17 553.96 299.53 547.38 291.96 541.26 284.53 535.62 277.26 530.65 270.24 526.14 263.55 522.06 254.23 516.99 238.87 508.71 233.18 505.04 226.64 497.85 223.51 484.63 223.65 478.94 223.22 472.78 220.25 458.35 217.32 450.14 214.56 444.51 211.49 438.52 208.26 432.19 204.69 425.85 201.28 419.2 198.23 412.24 195.44 405.28 193.45 398.19 192.39 391 192.01 383.81 192.71 376.53 194.44 369.17 196.89 361.82 200.26 354.39 204.41 346.92 208.97 339.45 214.02 331.93 219.4 324.41 224.74 316.9 230.13 309.41 235.43 301.96 240.33 294.58 244.99 287.29 249.37 280.14 253.2 273.12 256.74 266.31 260.04 259.79 262.85 253.48 265.52 247.52 268.13 242 271.62 234.43 279.14 222.61 283.53 218.54 288.33 215.68 300.03 213.51 306.93 213.97 314.35 214.96 330.87 218 339.78 219.49 345.83 220.01 352.04 220.35 358.35 220.44 364.68 219.91 371.1 219.08 377.57 217.95" stroke-dasharray="4 4" transform="rotate(32.32, 400, 400)"></path><path d="M378.77 229.32C384.9 227.66 391.05 225.87 397.22 224.01 403.42 221.82 409.66 219.76 415.98 217.9 422.35 215.99 428.85 214.47 435.49 213.42 442.25 212.57 449.23 212.32 456.43 212.7 463.81 213.44 471.47 214.87 479.4 216.97 487.5 219.5 495.86 222.68 504.42 226.48 513.06 230.66 521.77 235.38 530.45 240.58 538.95 246.07 547.17 251.94 554.92 258.13 562.13 264.49 568.56 271.08 574.02 277.84 578.56 284.67 581.88 291.61 583.83 298.6 584.71 305.61 584.22 312.64 582.38 319.66 579.75 326.65 576.12 333.62 571.71 340.56 567.29 347.47 562.73 354.34 558.42 361.18 555.1 368 552.7 374.79 551.51 381.55 552.04 388.3 554.1 395.04 557.69 401.76 562.94 408.47 569.38 415.17 576.64 421.84 584.54 428.5 592.17 434.97 599.03 441.23 605.13 447.47 609.66 453.48 612.39 459.23 613.51 464.94 612.6 470.36 609.73 475.46 605.3 480.48 599.26 485.15 591.91 489.42 583.71 493.59 574.81 497.34 565.58 500.64 556.36 503.84 547.35 506.59 538.78 508.89 530.86 511.11 523.64 512.92 517.19 514.34 503.52 517.87 490.71 522.93 487.69 525.43 484.88 529.13 477.85 539.75 473.32 546.86 470.09 552.43 466.39 558.43 462.21 564.77 457.96 571.52 453.25 578.37 448.12 585.14 442.93 591.87 437.34 598.18 431.38 603.86 425.4 608.97 419.08 613.1 412.43 616.05 405.79 618.02 398.99 618.6 392.07 617.8 385.16 615.98 378.14 612.9 371.02 608.69 363.91 603.71 356.71 597.88 349.45 591.37 342.2 584.52 334.9 577.31 327.59 569.91 320.32 562.61 313.08 555.37 305.92 548.32 298.89 541.67 291.99 535.35 285.32 529.41 278.88 524 272.75 518.99 267.02 514.35 259.18 508.34 246.81 498.24 242.49 493.8 237.87 485.61 235.89 472.08 235.86 466.66 235.12 460.91 231.43 447.59 228.22 440.03 225.34 434.85 222.22 429.32 218.97 423.46 215.43 417.59 212.06 411.4 209.04 404.9 206.26 398.4 204.23 391.75 203.06 384.98 202.52 378.22 202.97 371.35 204.4 364.4 206.51 357.47 209.52 350.46 213.3 343.41 217.52 336.38 222.29 329.33 227.44 322.29 232.66 315.3 238.02 308.35 243.39 301.49 248.49 294.72 253.43 288.08 258.15 281.62 262.41 275.32 266.42 269.26 270.18 263.52 275.03 255.42 283.5 241.76 287.46 236.41 295.44 229.47 309.78 225.62 315.7 226.28 322.02 227.3 336.32 230.04 344.18 231.29 352.33 231.77 369.65 230.86 378.76 229.32" stroke-dasharray="10 9" transform="rotate(36.36, 400, 400)"></path><path d="M383.71 240.7C389.55 239.11 395.51 237.42 401.58 235.67 407.67 233.61 413.9 231.65 420.27 229.87 433.17 226.16 446.86 224.07 461.32 223.99 476.19 225.09 491.84 228.69 507.83 234.62 523.49 241.95 538.4 251.26 551.35 262.07 561.9 273.68 568.73 286.22 570.91 299.25 569.76 312.49 564.53 325.91 556.48 339.25 549.17 352.57 543.23 365.8 540.87 378.78 541.93 385.27 544.3 391.71 547.96 398.09 553.03 404.47 559.09 410.78 565.83 417.01 573.12 423.24 580.17 429.23 586.58 434.97 592.38 440.7 596.87 446.16 599.83 451.33 601.59 461.58 596.32 470.55 585.2 478.05 570.49 485.31 553.5 491.04 536.4 495.26 520.75 499.44 507.24 502.5 496.16 504.8 487.77 508.01 481.03 511.43 475.11 515.62 470.43 521.97 465.26 529.88 459.05 539.45 452.93 551.12 445.3 563.75 436.08 576.32 431.43 582.54 426.39 588.34 420.98 593.52 415.55 598.19 409.77 601.96 403.64 604.68 397.51 606.54 391.2 607.15 384.74 606.55 378.3 605.05 371.72 602.4 365.04 598.73 351.77 589.39 338.2 577.25 324.69 563.6 311.56 549.93 298.88 536.46 287.17 523.91 276.44 513.01 267.29 503.35 260.22 494.78 254.51 487.75 250.95 481.18 249.44 474.64 248.3 468.81 248.06 462.35 248 455 246.16 447.77 243.22 439.37 238.99 429.75 236.03 424.92 232.87 419.78 229.62 414.34 226.14 408.88 222.83 403.13 219.85 397.08 217.1 391.03 215.05 384.84 213.78 378.54 213.08 372.24 213.3 365.85 214.43 359.38 218.58 346.51 225.86 333.45 235.31 320.5 245.36 307.81 255.89 295.49 266.11 283.94 274.93 273.04 282.9 263.32 290.12 255.21 295.88 248.15 301.52 242.99 307.43 239.94 312.78 237.8 319.02 237.47 326.33 238.7 333.6 239.75 342.08 241.37 351.7 243.07 359.05 243.34 375.06 242.21 383.7 240.7" stroke-dasharray="2 0" transform="rotate(40.400000000000006, 400, 400)"></path><path d="M391.52 252.07C402.68 248.65 414.55 245.1 427.06 241.88 439.71 238.28 453.12 236.06 467.12 235.57 481.22 235.98 495.67 238.61 509.88 243.35 523.34 249.32 535.49 257.21 545.3 266.59 552.79 276.8 556.76 288.06 556.73 299.94 554.29 312.15 548.82 324.67 541.57 337.22 535.66 349.83 531.4 362.36 530.47 374.64 534.78 386.92 543.34 398.95 555.02 410.52 568.58 422.09 579.99 432.61 587.11 441.97 589.88 451.25 586.51 459.28 577.75 465.98 565.43 472.56 550.34 477.85 534.34 481.94 518.82 486.23 504.56 489.74 492.11 492.84 481.79 496.95 473.09 501.45 465.49 506.76 459.22 513.97 453.02 522.5 446.35 532.32 440.02 543.76 432.64 555.76 424.03 567.44 415.39 578.63 405.43 587.63 394.2 593.3 382.97 596 371.09 594.3 358.88 588.64 346.81 580.49 334.61 569.65 322.66 557.18 311.17 544.4 300.34 531.45 290.65 519.01 281.89 507.78 274.72 497.48 269.47 488.14 265.24 480.12 262.79 472.63 261.92 465.36 260.98 458.83 260.53 451.97 259.98 444.53 257.62 437.3 254.19 429.17 249.63 420.05 243.22 410.94 236.56 400.76 230.66 389.55 225.59 378.34 223.44 366.67 224.54 354.8 227.97 343.01 234.41 331.16 243.07 319.54 252.6 308.21 262.91 297.37 273.27 287.39 282.65 278.04 291.4 269.89 299.47 263.29 306.19 257.58 312.6 253.58 319 251.43 324.66 249.93 330.89 249.93 337.9 251.2 344.69 252.12 352.53 253.46 361.46 254.81 370.34 254.59 380.35 253.7 391.51 252.07" stroke-dasharray="0 5" transform="rotate(44.44, 400, 400)"></path><path d="M400.82 263.45C411.47 260.23 422.85 256.93 434.81 253.93 446.83 250.48 459.43 248.21 472.32 247.39 485.05 247.25 497.69 249.04 509.6 252.7 520.55 257.41 529.84 263.9 536.67 271.85 541.49 280.6 543.19 290.46 541.61 301.04 538.5 312.02 533.29 323.43 527.12 334.96 522.67 346.63 519.98 358.28 520.3 369.69 525.11 381.15 533.41 392.31 544.2 402.99 556.61 413.67 567.22 423.31 574.26 431.84 577.81 440.32 576.08 447.66 569.51 453.85 559.57 460.04 546.62 465.19 532.18 469.44 517.48 474.04 503.22 478.16 490.12 482.13 478.51 487.12 468.27 492.58 459.18 498.82 451.32 506.66 443.9 515.57 436.47 525.41 429.51 536.45 421.97 547.73 413.63 558.48 405.34 568.65 396.06 576.79 385.79 581.93 375.52 584.51 364.81 583.22 353.96 578.42 343.26 571.39 332.63 561.82 322.46 550.59 312.74 538.84 303.84 526.62 296.15 514.57 289.25 503.32 283.82 492.71 280.08 482.87 276.98 474.1 275.26 465.85 274.68 457.95 273.68 450.73 272.87 443.41 271.73 435.77 268.84 428.39 264.96 420.38 260.13 411.64 253.73 402.94 247.21 393.4 241.48 383.04 236.49 372.68 234.15 362.02 234.75 351.29 237.47 340.65 243.02 330.08 250.8 319.86 259.62 309.93 269.48 300.6 279.7 292.18 289.35 284.31 298.65 277.62 307.41 272.39 315.05 267.84 322.3 264.82 329.38 263.39 335.66 262.35 342.23 262.54 349.33 263.74 356.08 264.48 363.68 265.51 372.22 266.51 380.65 266.07 390.17 265.06 400.82 263.45" stroke-dasharray="8 5" transform="rotate(48.48, 400, 400)"></path><path d="M409.98 274.82C420.09 271.82 430.76 268.78 441.82 266.01 452.88 262.77 464.22 260.5 475.5 259.46 486.47 258.89 496.95 259.97 506.35 262.69 514.75 266.25 521.36 271.44 525.63 278.01 528.3 285.31 528.37 293.72 525.91 302.92 522.67 312.54 518.11 322.68 513.22 333.05 510.22 343.59 508.97 354.2 510.35 364.63 515.5 375.13 523.47 385.37 533.39 395.17 544.68 404.97 554.47 413.82 561.31 421.68 565.41 429.52 565.05 436.39 560.44 442.31 552.79 448.32 542.1 453.55 529.55 458.16 516.21 463.18 502.65 467.97 489.62 472.78 477.45 478.54 466.28 484.8 456.12 491.74 446.96 499.97 438.41 509.01 430.18 518.67 422.43 529.16 414.52 539.65 406.24 549.45 398.06 558.62 389.27 565.92 379.88 570.56 370.48 573.01 360.95 572.08 351.51 568.07 342.21 562.09 333.21 553.76 324.83 543.78 316.84 533.15 309.75 521.84 303.85 510.42 298.52 499.46 294.49 488.86 291.86 478.82 289.49 469.59 288.15 460.83 287.55 452.43 286.27 444.65 284.95 436.9 283.18 429.05 279.79 421.48 275.52 413.52 270.48 405.09 264.15 396.71 257.83 387.74 252.29 378.19 247.42 368.64 244.93 358.99 245.07 349.41 247.09 339.92 251.75 330.65 258.57 321.83 266.52 313.27 275.71 305.38 285.51 298.42 295.12 291.91 304.65 286.53 313.85 282.46 322.21 278.89 330.22 276.65 337.98 275.72 345 274.99 352.12 275.25 359.52 276.29 366.54 276.8 374.16 277.5 382.51 278.16 390.74 277.52 399.87 276.41 409.98 274.82" stroke-dasharray="2 3" transform="rotate(52.52, 400, 400)"></path><path d="M417.38 286.19C426.87 283.42 436.65 280.64 446.55 278.11 456.39 275.1 466.18 272.91 475.59 271.74 484.63 270.86 492.86 271.37 499.84 273.29 508.1 277.87 513.22 294.58 510.03 305.87 507.12 314.08 503.49 322.87 499.96 331.99 498.35 341.29 498.36 350.75 500.6 360.14 505.95 369.59 513.52 378.88 522.58 387.83 532.79 396.77 541.73 404.92 548.28 412.24 552.72 419.58 553.46 426.14 550.56 431.97 545.02 437.95 536.57 443.39 526.09 448.43 514.52 453.9 502.22 459.32 489.9 464.86 477.92 471.23 466.51 478.06 455.86 485.43 445.9 493.81 436.56 502.75 427.71 512.04 419.29 521.86 411 531.48 402.71 540.32 394.54 548.53 386.14 555.03 377.51 559.18 368.89 561.5 360.45 560.89 352.36 557.58 344.36 552.59 336.87 545.44 330.12 536.71 323.64 527.26 318.08 516.99 313.63 506.4 309.49 496 306.44 485.72 304.47 475.79 302.48 466.42 301.17 457.41 300.28 448.76 298.57 440.6 296.66 432.56 294.28 424.58 290.42 416.85 285.85 408.93 280.69 400.79 274.5 392.7 268.41 384.26 263.1 375.48 258.38 366.7 255.78 358.01 255.52 349.56 256.88 341.17 260.65 333.14 266.46 325.65 273.43 318.37 281.75 311.8 290.88 306.14 300.11 300.82 309.54 296.54 318.85 293.42 327.62 290.62 336.15 288.94 344.43 288.35 352.12 287.77 359.78 287.98 367.53 288.8 374.94 289.04 382.71 289.43 390.96 289.76 399.09 288.94 407.89 287.75 417.38 286.19" stroke-dasharray="4 2" transform="rotate(56.56, 400, 400)"></path><path d="M421.71 297.57C430.5 295.01 439.26 292.51 447.85 290.23 456.35 287.48 464.49 285.42 472 284.21 488.96 285.46 497.49 300.87 494.35 310.16 492.1 316.97 489.57 324.41 487.41 332.25 487.05 340.27 488.14 348.53 491.03 356.85 496.45 365.22 503.56 373.55 511.77 381.67 520.92 389.79 529.02 397.31 535.18 404.19 539.78 411.11 541.35 417.46 539.88 423.31 536.21 429.31 529.88 434.99 521.52 440.45 511.95 446.32 501.31 452.24 490.25 458.32 479.11 465.09 468.13 472.24 457.61 479.79 447.48 488.08 437.85 496.71 428.74 505.46 419.94 514.52 411.45 523.22 403.22 531.11 395.1 538.38 387.05 544.12 379.12 547.81 371.18 549.98 363.7 549.63 356.78 546.96 349.9 542.87 343.68 536.84 338.25 529.33 332.96 521.1 328.55 511.97 325.1 502.36 321.74 492.75 319.25 483.05 317.54 473.52 315.57 464.33 314.02 455.38 312.66 446.72 310.43 438.43 307.92 430.3 304.95 422.33 300.73 414.55 295.94 406.76 290.75 398.92 284.76 391.14 278.96 383.21 273.91 375.17 269.38 367.12 266.72 359.35 266.09 351.95 266.85 344.59 269.76 337.69 274.55 331.4 280.47 325.25 287.76 319.83 295.99 315.27 304.55 310.94 313.52 307.54 322.58 305.14 331.39 302.9 340.1 301.59 348.62 301.16 356.74 300.62 364.77 300.69 372.76 301.24 380.49 301.2 388.38 301.27 396.49 301.3 404.52 300.32 412.92 299.07 421.71 297.57" stroke-dasharray="1 3" transform="rotate(60.599999999999994, 400, 400)"></path><path d="M422.21 308.94C430.21 306.61 437.9 304.37 445.15 302.36 455.61 298.96 472.42 295.56 477.92 296.25 481.48 298.44 481.7 308.45 479.22 315.91 477.85 321.43 476.48 327.58 475.6 334.19 476.34 340.95 478.28 348.04 481.64 355.29 486.99 362.6 493.59 369.98 500.97 377.32 509.11 384.65 516.35 391.58 522.05 398.08 526.63 404.62 528.79 410.81 528.45 416.67 526.37 422.69 521.94 428.56 515.62 434.33 508.11 440.46 499.38 446.69 489.94 453.1 480.15 460.02 470.18 467.24 460.38 474.71 450.7 482.68 441.33 490.82 432.4 498.89 423.65 507.09 415.27 514.86 407.27 521.8 399.35 528.17 391.71 533.18 384.4 536.43 377.09 538.44 370.42 538.32 364.43 536.22 358.45 532.94 353.18 527.95 348.69 521.61 344.23 514.59 340.55 506.65 337.66 498.14 334.69 489.49 332.36 480.61 330.56 471.72 328.37 463.01 326.4 454.41 324.46 446.02 321.69 437.88 318.62 429.89 315.17 422.1 310.69 414.46 305.79 406.9 300.67 399.44 294.94 392.03 289.48 384.62 284.72 377.29 280.42 369.95 277.73 363.02 276.81 356.56 277.03 350.13 279.13 344.23 282.93 338.96 287.75 333.79 293.93 329.31 301.08 325.63 308.71 322.07 316.91 319.32 325.37 317.42 333.82 315.56 342.31 314.45 350.71 314.04 358.9 313.44 367 313.31 374.99 313.55 382.81 313.24 390.65 313.01 398.5 312.77 406.3 311.67 414.22 310.38 422.21 308.94" stroke-dasharray="2 3" transform="rotate(64.64, 400, 400)"></path><path d="M418.8 320.32C425.94 318.22 432.56 316.25 438.59 314.49 459.92 309.87 466.36 317.34 464.97 323.21 464.43 330.06 467.47 346.6 472.4 355.84 477.56 362.12 483.6 368.59 490.16 375.17 497.31 381.75 503.72 388.12 508.89 394.25 513.3 400.41 515.81 406.4 516.32 412.22 515.52 418.18 512.73 424.11 508.26 430.03 502.73 436.23 495.95 442.56 488.33 449.02 480.22 455.85 471.69 462.89 463.06 470.03 454.36 477.49 445.76 484.97 437.46 492.26 429.23 499.55 421.29 506.37 413.76 512.38 406.28 517.9 399.14 522.23 392.43 525.06 382.72 526.93 366.8 520.77 360.57 513.53 356.6 507.67 353.27 500.93 350.55 493.59 347.65 486.03 345.19 478.12 343.07 470.1 340.5 462.11 338.02 454.13 335.49 446.27 332.23 438.55 328.71 430.95 324.9 423.54 320.28 416.24 315.4 409.06 310.43 402.07 305.04 395.12 299.96 388.28 295.54 381.64 290.16 371.91 288.12 355.07 291.66 348.11 295.41 343.72 300.42 339.99 306.4 336.96 312.91 333.97 320.08 331.67 327.64 330.07 335.35 328.43 343.24 327.38 351.14 326.89 358.99 326.15 366.79 325.79 374.47 325.71 382.07 325.14 389.59 324.64 396.99 324.17 404.36 322.98 411.66 321.68 418.8 320.32" stroke-dasharray="7 2" transform="rotate(68.68, 400, 400)"></path><path d="M412.07 331.69C424.57 327.42 434.52 324.13 441.45 322.39 449.62 320.54 452.8 331.59 454.29 343.82 459.94 353 468.64 363.76 479.34 375.47 491.9 387.17 500.59 398.73 503.59 409.96 502.85 421.61 495.97 433.64 484.91 445.9 471.87 459.1 457.1 472.69 442.51 485.52 427.86 498.05 414 508.11 401.8 513.68 389.6 516.19 379.96 512.9 372.75 505.05 365.15 495.09 359.3 482.28 354.58 468.34 348.18 454.21 341.47 439.85 334.12 426.16 324.4 412.69 314.54 399.71 306.35 387.78 299.36 375.85 297.55 365.99 300.81 358.44 307.02 350.9 317.3 345.69 329.87 342.84 343.41 339.6 357.8 338.02 371.85 337.68 385.91 335.6 399.56 333.62 412.07 331.69" stroke-dasharray="7 11" transform="rotate(72.72, 400, 400)"></path><path d="M403.21 343.07C413.92 339.37 422.18 336.65 427.81 335.25 434.89 333.5 440.81 341.69 444.75 351.48 450.95 358.84 459.19 367.88 468.53 378.16 479.27 388.44 486.97 399.05 490.35 409.68 491.22 420.6 487.15 431.98 479.36 443.47 469.83 455.48 458.24 467.55 446.15 478.63 433.82 489.25 421.75 497.65 410.85 502.31 399.94 504.65 391.06 502.29 384.05 496.16 376.61 488.33 370.32 477.87 364.73 466.16 357.73 454.07 350.44 441.5 342.83 429.35 333.6 417.29 324.56 405.67 317.16 395.12 310.72 384.57 308.5 375.98 310.44 369.46 314.68 362.88 322.51 358.24 332.58 355.49 343.73 352.26 355.98 350.33 368.16 349.41 380.53 347.06 392.49 344.92 403.21 343.07" stroke-dasharray="10 2" transform="rotate(76.76, 400, 400)"></path><path d="M393.78 354.44C406.24 350.23 421.4 346.67 425.31 348.8 428.58 350.89 431.9 354.93 435.9 360.73 442.2 366.61 449.74 374.11 457.72 382.99 466.7 391.87 473.31 401.35 476.7 411.03 478.55 420.89 476.61 431.19 471.55 441.46 465.17 451.96 456.68 462.28 447.24 471.53 437.5 480.28 427.49 487.13 417.98 490.93 408.48 493.06 400.3 491.48 393.36 486.86 386.07 480.94 379.43 472.74 373.22 463.28 365.97 453.4 358.51 442.87 351.04 432.52 342.57 422.15 334.51 412.09 327.97 402.94 322.17 393.78 319.73 386.33 320.59 380.62 323.13 374.8 328.67 370.54 336.25 367.77 344.82 364.51 354.59 362.27 364.56 360.88 374.79 358.37 384.8 356.19 393.78 354.44" stroke-dasharray="5 8" transform="rotate(80.80000000000001, 400, 400)"></path><path d="M385.45 365.82C395.76 362.43 410 359.93 415.05 361.73 419.04 363.34 423.18 366.53 427.68 371.2 433.68 375.88 440.3 382.02 446.91 389.49 454.2 396.96 459.66 405.11 462.76 413.53 465.04 422.03 464.52 430.88 461.55 439.59 457.71 448.34 451.95 456.78 445.02 464.18 437.81 471.14 429.94 476.54 421.95 479.56 413.95 481.43 406.58 480.46 399.9 477.14 392.97 472.9 386.31 466.77 379.91 459.49 372.86 451.82 365.73 443.44 358.8 435.02 351.33 426.54 344.38 418.18 338.79 410.47 332.47 399.56 334.24 384.24 341.32 379.43 347.37 376.21 354.61 373.76 362.28 372.05 370.18 369.53 378.12 367.4 385.45 365.82" stroke-dasharray="1 5" transform="rotate(84.84, 400, 400)"></path><path d="M379.68 377.19C391.25 372.59 400.17 371.71 406.97 374.75 416.02 377.36 426.32 384.92 436.09 397.02 447.56 409.11 452.28 423.7 449.63 437.55 445.09 451.21 434.83 462.94 422.04 468.19 409.24 470.55 396.49 464.85 384.84 454.6 371.87 443.2 358.88 429.43 349.6 416.97 341.68 404.51 341.8 395.55 348.08 390.28 356.27 383.84 368.12 379.26 379.68 377.19" stroke-dasharray="3 4" transform="rotate(88.88, 400, 400)"></path><path d="M377.5 388.56C386.12 385.27 394.09 385 401.01 387.61 409.16 389.84 417.85 395.66 425.28 404.84 433.65 414.01 437.43 424.95 436.23 435.07 434.23 444.92 427.75 453.18 418.24 456.81 408.73 458.84 398.16 455.35 388.2 448.5 377.75 440.94 367.56 431.22 360.41 421.82 354.06 412.4 353.18 405.02 356.7 400.13 361.22 394.54 368.88 390.4 377.5 388.56" stroke-dasharray="8 6" transform="rotate(92.92, 400, 400)"></path><path d="M379.28 399.94C390.83 395.18 405.15 399.8 414.47 412.18 425.39 424.55 423.71 440.35 411.23 445.44 398.74 447.73 381.05 437.12 371.22 424.52 362.84 411.91 367.72 402.08 379.28 399.94" stroke-dasharray="6 9" transform="rotate(96.96, 400, 400)"></path></g></svg>