<?xml version="1.0" encoding="utf-8"?>
<svg viewBox="-342.209 89.142 389.801 285.528" xmlns="http://www.w3.org/2000/svg">
  <defs>
    <linearGradient gradientUnits="userSpaceOnUse" x1="-239.469" y1="202.322" x2="-239.469" y2="260.232" id="gradient-1">
      <stop offset="0" style="stop-color: rgba(216, 222, 233, 1)"/>
      <stop offset="1" style="stop-color: rgba(151, 167, 196, 1)"/>
    </linearGradient>
    <linearGradient gradientUnits="userSpaceOnUse" x1="-137.404" y1="238.852" x2="-137.404" y2="319.112" id="gradient-0">
      <stop offset="0" style="stop-color: rgba(216, 222, 233, 1)"/>
      <stop offset="1" style="stop-color: rgba(151, 167, 196, 1)"/>
    </linearGradient>
    <linearGradient gradientUnits="userSpaceOnUse" x1="-300.199" y1="250.232" x2="-300.199" y2="283.349" id="gradient-2">
      <stop offset="0" style="stop-color: rgba(216, 222, 233, 1)"/>
      <stop offset="1" style="stop-color: rgba(151, 167, 196, 1)"/>
    </linearGradient>
  </defs>
  <path d="M -153.754 370.012 L -333.484 263.792 C -339.204 260.592 -344.114 255.302 -338.534 251.842 L -158.164 147.842 C -155.454 146.162 -151.344 145.062 -148.594 146.662 L 40.016 256.202 C 45.736 259.522 46.766 268.802 41.016 272.132 L -130.064 369.842 C -137.375 374.083 -146.382 374.148 -153.754 370.012 Z" style="fill: rgb(236, 239, 244);"/>
  <path d="M -242.614 255.342 C -238.194 252.632 -217.174 239.242 -212.834 236.422 C -205.394 231.592 -195.894 224.592 -195.894 224.592 L -243.284 202.322 L -283.044 228.432 C -275.844 232.202 -254.134 258.222 -250.534 260.232 C -248.924 259.282 -244.194 256.312 -242.614 255.342 Z" style="fill: url(#gradient-1);"/>
  <path d="M -137.394 319.112 C -122.394 311.042 -76.294 274.052 -75.394 271.452 L -125.984 238.852 L -199.414 277.662 C -183.744 285.872 -159.064 305.702 -137.394 319.112 Z" style="fill: url(#gradient-0);"/>
  <path d="M -106.984 229.702 L -125.984 238.852 C -129.019 240.32 -129.326 244.523 -126.537 246.418 C -126.457 246.472 -126.376 246.523 -126.294 246.572 L -81.234 272.852 C -79.209 274.033 -76.613 273.412 -75.344 271.442 L -64.394 254.442" style="fill: rgb(94, 129, 172);"/>
  <path d="M -11.494 180.982 L -166.684 91.592 C -169.985 89.613 -174.19 91.95 -174.254 95.798 C -174.254 95.853 -174.254 95.907 -174.254 95.962 L -174.254 190.962 C -174.253 192.353 -173.509 193.638 -172.304 194.332 L -7.124 289.682 C -5.87 290.405 -4.304 289.501 -4.304 288.053 C -4.304 288.053 -4.304 288.052 -4.304 288.052 L -4.304 193.412 C -4.306 188.281 -7.047 183.542 -11.494 180.982 Z" style="fill: rgb(129, 161, 193);"/>
  <path d="M -163.984 99.982 L -16.984 184.592 C -13.787 186.43 -11.816 189.835 -11.814 193.522 L -11.814 261.592 C -11.812 264.451 -14.903 266.244 -17.384 264.822 L -167.294 178.822 C -168.455 178.163 -169.167 176.926 -169.154 175.592 L -169.154 102.982 C -169.161 100.326 -166.29 98.658 -163.987 99.98 C -163.986 99.98 -163.985 99.981 -163.984 99.982 Z" fill="#fff"/>
  <ellipse cx="246.42" cy="145.54" rx="1.6" ry="0.01" transform="matrix(0.981959, -0.189095, 0.189095, 0.981959, -370.063904, 131.831497)" fill="#ab643c"/>
  <ellipse cx="-28.074" cy="184.112" rx="1.6" ry="1.74" fill="#c5e9ff"/>
  <path d="M -162.264 117.542 L -126.844 136.482 C -125.144 137.392 -123.624 134.802 -125.334 133.892 L -160.744 114.952 C -162.444 114.042 -163.964 116.632 -162.254 117.542 Z" style="fill: rgb(163, 190, 140);"/>
  <path d="M -300.834 283.062 C -296.414 280.348 -292.027 277.582 -287.674 274.762 C -280.244 269.932 -277.084 269.002 -270.174 263.232 L -299.824 250.232 L -330.224 265.712 C -323.024 269.482 -304.424 281.062 -300.834 283.062 C -299.224 282.122 -302.424 284.042 -300.834 283.062 Z" style="fill: url(#gradient-2);"/>
  <path d="M -285.064 209.022 C -298.724 209.022 -309.804 212.642 -309.804 217.112 L -260.324 217.112 C -260.324 212.592 -271.394 209.022 -285.064 209.022 Z" fill="#0a1d23"/>
  <path d="M -309.724 217.732 L -309.804 217.102 C -309.801 217.314 -309.775 217.525 -309.724 217.732 Z" fill="#06489e"/>
  <path d="M -260.324 217.112 L -260.424 217.822 C -260.359 217.59 -260.326 217.352 -260.324 217.112 Z" fill="#06489e"/>
  <path d="M -285.064 225.192 C -272.134 225.192 -261.524 221.952 -260.424 217.812 L -260.324 217.102 L -309.804 217.102 L -309.724 217.732 C -308.744 221.902 -298.084 225.192 -285.064 225.192 Z" fill="#0a1d23"/>
  <rect x="-281.174" y="175.352" width="5.57" height="57.42" style="fill: rgb(163, 190, 140);"/>
  <ellipse cx="-278.384" cy="175.352" rx="2.78" ry="1.18" fill="#25b000"/>
  <rect x="72.49" y="102.58" width="5.57" height="57.42" transform="matrix(0.979785, 0.200052, -0.200052, 0.979785, -319.194, 70.191452)" style="fill: rgb(208, 135, 112);"/>
  <ellipse cx="81.02" cy="103.16" rx="1.18" ry="2.78" transform="matrix(0.200052, -0.979785, 0.979785, 0.200052, -383.24411, 244.491486)" fill="#ff8f02"/>
  <path d="M -291.784 218.372 L -296.864 221.282 C -297.164 221.455 -297.539 221.238 -297.539 220.891 C -297.539 220.731 -297.453 220.582 -297.314 220.502 L -292.114 217.502 C -292.064 217.472 -292.01 217.451 -291.954 217.442 L -292.954 211.942 L -298.084 214.892 C -298.384 215.065 -298.759 214.848 -298.759 214.501 C -298.759 214.341 -298.673 214.192 -298.534 214.112 L -293.334 211.112 C -293.275 211.078 -293.211 211.057 -293.144 211.052 L -294.084 205.962 L -299.084 208.832 C -299.384 209.005 -299.759 208.788 -299.759 208.441 C -299.759 208.281 -299.673 208.132 -299.534 208.052 L -294.334 205.052 L -294.234 205.052 L -295.284 199.382 L -300.284 202.242 C -300.584 202.415 -300.959 202.198 -300.959 201.851 C -300.959 201.691 -300.873 201.542 -300.734 201.462 L -295.534 198.462 L -295.454 198.462 L -296.454 192.922 L -301.534 195.832 C -301.834 196.005 -302.209 195.788 -302.209 195.441 C -302.209 195.281 -302.123 195.132 -301.984 195.052 L -296.784 192.052 C -296.734 192.022 -296.68 192.001 -296.624 191.992 L -297.514 187.182 L -302.604 190.092 C -302.904 190.265 -303.279 190.048 -303.279 189.701 C -303.279 189.541 -303.193 189.392 -303.054 189.312 L -297.854 186.312 C -297.801 186.28 -297.744 186.26 -297.684 186.252 L -298.574 181.452 L -303.654 184.352 C -303.954 184.525 -304.329 184.308 -304.329 183.961 C -304.329 183.801 -304.243 183.652 -304.104 183.572 L -298.904 180.572 C -298.863 180.573 -298.822 180.58 -298.784 180.592 L -299.784 175.312 L -304.784 178.182 C -305.084 178.355 -305.459 178.138 -305.459 177.791 C -305.459 177.631 -305.373 177.482 -305.234 177.402 L -300.034 174.402 L -299.934 174.402 L -300.394 171.942 L -311.394 178.782 C -311.394 178.782 -303.554 222.432 -303.394 222.522 C -298.814 224.912 -290.484 225.192 -290.484 225.192 Z" style="fill: rgb(129, 161, 193);"/>
  <path d="M -305.244 177.422 C -305.544 177.595 -305.544 178.028 -305.244 178.201 C -305.104 178.282 -304.933 178.282 -304.794 178.202 L -299.794 175.332 L -299.984 174.402 L -300.084 174.402 Z" style="fill: rgb(94, 129, 172);"/>
  <path d="M -304.144 183.592 C -304.444 183.765 -304.444 184.198 -304.144 184.371 C -304.004 184.452 -303.833 184.452 -303.694 184.372 L -298.614 181.472 L -298.784 180.592 C -298.836 180.599 -298.887 180.616 -298.934 180.642 Z" style="fill: rgb(94, 129, 172);"/>
  <path d="M -303.094 189.352 C -303.394 189.525 -303.394 189.958 -303.094 190.131 C -302.954 190.212 -302.783 190.212 -302.644 190.132 L -297.554 187.222 L -297.724 186.322 C -297.784 186.33 -297.841 186.35 -297.894 186.382 Z" style="fill: rgb(94, 129, 172);"/>
  <path d="M -301.984 195.052 C -302.284 195.225 -302.284 195.658 -301.984 195.831 C -301.844 195.912 -301.673 195.912 -301.534 195.832 L -296.454 192.922 L -296.624 192.022 C -296.68 192.031 -296.734 192.052 -296.784 192.082 Z" style="fill: rgb(94, 129, 172);"/>
  <path d="M -300.754 201.472 C -301.054 201.645 -301.054 202.078 -300.754 202.251 C -300.614 202.332 -300.443 202.332 -300.304 202.252 L -295.304 199.392 L -295.474 198.462 L -295.554 198.462 Z" style="fill: rgb(94, 129, 172);"/>
  <path d="M -299.554 208.082 C -299.854 208.255 -299.854 208.688 -299.554 208.861 C -299.414 208.942 -299.243 208.942 -299.104 208.862 L -294.104 205.992 L -294.274 205.072 L -294.374 205.072 Z" style="fill: rgb(94, 129, 172);"/>
  <path d="M -293.334 211.142 L -298.534 214.142 C -298.834 214.315 -298.834 214.748 -298.534 214.921 C -298.394 215.002 -298.223 215.002 -298.084 214.922 L -292.984 211.972 L -293.154 211.082 C -293.217 211.088 -293.278 211.109 -293.334 211.142 Z" style="fill: rgb(94, 129, 172);"/>
  <path d="M -297.314 220.492 C -297.614 220.665 -297.614 221.098 -297.314 221.271 C -297.174 221.352 -297.003 221.352 -296.864 221.272 L -291.784 218.362 L -291.954 217.462 C -292.01 217.471 -292.064 217.492 -292.114 217.522 Z" style="fill: rgb(94, 129, 172);"/>
  <path d="M -268.694 185.192 C -268.694 185.192 -268.414 186.652 -266.204 186.902 C -263.994 187.152 -263.204 186.302 -263.204 186.302 L -263.924 175.302 Z" style="fill: rgb(235, 203, 139);"/>
  <path d="M -263.984 175.352 L -266.184 179.922 C -265.536 180.626 -264.479 180.773 -263.664 180.272 Z" style="fill: rgb(46, 52, 64);"/>
  <path d="M -281.174 175.012 C -281.174 175.012 -280.664 176.412 -278.444 176.312 C -276.224 176.212 -275.614 175.252 -275.614 175.252 L -278.044 164.592 Z" style="fill: rgb(235, 203, 139);"/>
  <path d="M -278.044 164.592 L -279.494 169.452 C -278.74 170.016 -277.695 169.979 -276.984 169.362 Z" style="fill: rgb(46, 52, 64);"/>
  <path d="M -285.064 225.192 C -298.064 225.192 -308.744 221.902 -309.724 217.732 C -309.074 222.732 -304.634 257.052 -304.464 257.252 C -304.464 257.252 -302.194 266.932 -285.064 266.922 C -270.494 266.922 -266.334 259.602 -266.334 259.602 L -260.424 217.812 C -261.524 221.952 -272.134 225.192 -285.064 225.192 Z" style="fill: rgb(94, 129, 172);"/>
  <polyline points="-239.684 135.752 -248.554 140.482 -224.344 163.282 -202.994 169.982 -195.894 160.342" style="fill: rgb(235, 203, 139);"/>
  <polyline points="-206.264 165.132 -198.034 160.442 -239.684 135.752 -238.704 135.182 -195.894 160.342 -195.894 224.592 -205.234 229.912 -208.794 226.192" fill="#5E81AC"/>
  <polyline points="-206.264 165.132 -198.034 160.442 -239.684 135.752 -238.704 135.182 -195.894 160.342 -195.894 224.592 -205.234 229.912 -208.794 226.192" opacity="0.42" style="fill: rgb(94, 129, 172);"/>
  <polygon points="-248.554 140.482 -205.234 165.732 -205.234 229.912 -249.234 203.612 -248.554 140.482" style="fill: rgb(129, 161, 193);"/>
  <polygon points="-206.864 161.522 -209.514 163.202 -209.514 176.882 -211.194 174.732 -212.374 176.062 -212.374 161.572 -209.894 159.792 -206.864 161.522" style="fill: rgb(191, 97, 106);"/>
  <polyline points="-251.804 154.182 -259.714 158.402 -238.134 178.722 -219.114 184.702 -212.774 176.112" style="fill: rgb(235, 203, 139);"/>
  <polyline points="-222.024 180.372 -214.684 176.202 -251.804 154.182 -250.934 153.682 -212.774 176.112 -212.774 233.372 -221.104 238.112 -224.274 234.802" fill="#5E81AC"/>
  <polyline points="-222.024 180.372 -214.684 176.202 -251.804 154.182 -250.934 153.682 -212.774 176.112 -212.774 233.372 -221.104 238.112 -224.274 234.802" opacity="0.42" style="fill: rgb(94, 129, 172);"/>
  <polygon points="-259.714 158.402 -221.104 180.912 -221.104 238.112 -260.324 214.672 -259.714 158.402" style="fill: rgb(129, 161, 193);"/>
  <polygon points="-222.564 177.162 -224.914 178.652 -224.914 190.842 -226.414 188.932 -227.464 190.112 -227.464 177.202 -225.264 175.622 -222.564 177.162" style="fill: rgb(191, 97, 106);"/>
  <path d="M -205.054 312.592 C -205.054 312.592 -205.524 316.252 -204.984 316.472 C -204.006 317.063 -202.853 317.293 -201.724 317.122 C -200.112 316.599 -198.473 316.169 -196.814 315.832 C -194.814 315.542 -189.634 316.152 -188.744 314.772 C -187.854 313.392 -188.744 310.522 -188.744 310.522" style="fill: rgb(229, 233, 240);"/>
  <path d="M -188.754 310.542 C -189.154 308.312 -192.454 309.242 -194.004 308.232 C -196.854 306.392 -197.004 302.342 -196.744 299.312 L -203.084 297.112 L -204.334 304.392 L -205.054 312.632 C -204.404 313.547 -203.346 314.085 -202.224 314.072 L -197.994 313.132 C -195.304 312.882 -188.474 312.102 -188.754 310.542 Z" style="fill: rgb(94, 129, 172);"/>
  <path d="M -196.214 316.942 C -196.214 316.942 -196.684 320.602 -196.144 320.822 C -195.166 321.413 -194.013 321.643 -192.884 321.472 C -191.272 320.949 -189.633 320.519 -187.974 320.182 C -185.974 319.892 -180.794 320.502 -179.904 319.122 C -179.014 317.742 -179.904 314.872 -179.904 314.872" style="fill: rgb(229, 233, 240);"/>
  <path d="M -179.914 314.852 C -180.314 312.622 -183.614 313.552 -185.164 312.542 C -188.014 310.702 -188.164 306.652 -187.904 303.622 L -194.244 301.422 L -195.494 308.702 L -196.214 316.942 C -195.564 317.857 -194.506 318.395 -193.384 318.382 L -189.154 317.442 C -186.464 317.192 -179.634 316.422 -179.914 314.852 Z" style="fill: rgb(94, 129, 172);"/>
  <path d="M -205.374 292.592 L -206.984 301.142 C -206.984 301.142 -204.524 303.672 -196.234 303.372 C -187.944 303.072 -196.234 288.232 -196.234 288.232" style="fill: rgb(191, 97, 106);"/>
  <ellipse cx="-216.134" cy="312.542" rx="11.8" ry="4.38" style="fill: rgb(143, 188, 187);"/>
  <polyline points="-218.124 292.932 -217.664 310.582 -214.144 310.582 -214.144 292.932" style="fill: rgb(143, 188, 187);"/>
  <path d="M -193.444 267.462 C -196.977 268.235 -200.54 268.832 -204.134 269.252 C -204.294 269.267 -204.442 269.346 -204.544 269.472 C -204.957 268.232 -205.31 266.968 -205.604 265.682 C -205.764 264.952 -206.884 265.262 -206.724 265.992 C -206.062 268.908 -205.079 271.742 -203.794 274.442 C -203.474 275.122 -202.474 274.532 -202.794 273.852 C -203.324 272.722 -203.794 271.582 -204.224 270.412 L -204.144 270.412 C -200.45 269.978 -196.784 269.365 -193.144 268.572 C -192.404 268.422 -192.714 267.302 -193.444 267.462 Z" fill="#008074"/>
  <path d="M -202.984 275.652 C -203.926 277.221 -205.138 278.612 -206.564 279.762 C -207.144 280.232 -206.314 281.052 -205.744 280.582 C -204.246 279.366 -202.974 277.897 -201.984 276.242 C -201.756 275.857 -202.031 275.37 -202.478 275.366 C -202.685 275.364 -202.878 275.473 -202.984 275.652 Z" fill="#008074"/>
  <path d="M -210.224 271.872 C -210.224 271.872 -200.974 264.452 -194.834 263.572 C -188.694 262.692 -185.484 269.362 -185.924 273.822 C -186.364 278.282 -201.064 280.722 -201.064 280.722" fill="#edbab9"/>
  <path d="M -205.294 274.342 C -204.094 273.232 -188.394 265.902 -182.864 269.252 C -177.334 272.602 -177.684 275.072 -178.384 279.152 C -179.084 283.232 -184.384 305.152 -184.384 305.152 C -188.398 306.693 -192.802 306.9 -196.944 305.742 L -195.394 289.432 L -216.314 278.012" style="fill: rgb(191, 97, 106);"/>
  <path d="M -216.734 248.102 C -215.904 248.712 -208.734 249.572 -207.234 252.882 C -205.734 256.192 -203.454 273.222 -203.454 273.222 C -203.454 273.222 -207.754 279.632 -215.204 277.352 C -217.414 276.672 -228.874 255.722 -229.204 253.552 C -229.984 247.892 -216.734 248.102 -216.734 248.102 Z" style="fill: rgb(235, 203, 139);"/>
  <path d="M -230.874 284.912 C -231.236 284.052 -231.533 283.166 -231.764 282.262 C -233.524 275.372 -234.674 249.502 -223.044 250.562 C -210.284 251.712 -214.594 283.662 -201.664 282.682 C -188.734 281.702 -183.434 285.062 -188.724 290.072 C -199.294 300.082 -224.394 300.312 -230.874 284.912 Z" fill="#5E81AC"/>
  <path d="M -212.154 238.872 C -212.074 239.392 -211.154 246.802 -213.344 248.472 C -215.534 250.142 -220.464 246.202 -220.584 244.242 C -220.704 242.282 -222.374 238.242 -220.274 237.182 C -218.174 236.122 -212.744 235.212 -212.154 238.872 Z" fill="#ffe0de"/>
  <path d="M -213.984 233.672 L -214.234 233.512 C -217.044 231.862 -221.674 232.272 -224.004 234.642 C -224.631 235.321 -225.175 236.073 -225.624 236.882 C -225.964 237.481 -226.342 238.059 -226.754 238.612 C -226.803 241.59 -225.67 244.466 -223.604 246.612 C -221.592 247.886 -219.274 248.594 -216.894 248.662 C -215.974 245.912 -217.304 242.782 -215.994 240.022 C -215.358 238.785 -214.331 237.794 -213.074 237.202 C -213.019 235.96 -213.336 234.731 -213.984 233.672 Z" style="fill: rgb(15, 41, 49);"/>
  <path d="M -214.854 243.992 C -215.142 243.166 -215.767 242.501 -216.574 242.162 C -217.304 241.862 -218.304 241.772 -218.744 242.572 C -219.744 244.342 -217.324 245.572 -216.044 246.072 C -215.444 246.302 -215.184 245.332 -215.774 245.072 L -215.984 244.992 L -215.914 244.992 C -215.649 245.009 -215.427 244.796 -215.434 244.532 C -215.104 244.652 -214.704 244.412 -214.854 243.992 Z" fill="#ffe0de"/>
  <polygon points="-195.384 240.912 -174.754 253.832 -178.174 268.382 -197.444 255.222 -195.384 240.912" style="fill: rgb(129, 161, 193);"/>
  <path d="M -197.444 255.212 C -197.444 255.212 -207.984 260.462 -207.854 260.592 C -207.724 260.722 -189.234 274.592 -189.234 274.592 L -178.174 268.412 Z" style="fill: rgb(94, 129, 172);"/>
  <path d="M -192.984 266.322 C -192.984 266.322 -190.184 263.812 -189.764 263.612 C -189.11 263.487 -188.437 263.676 -187.944 264.122 C -187.494 264.542 -186.864 264.392 -186.364 264.932 C -185.864 265.472 -184.594 267.372 -184.954 267.872 C -185.314 268.372 -186.324 267.162 -186.664 266.872 C -187.004 266.582 -186.664 267.872 -187.144 268.642 C -187.624 269.412 -190.534 270.142 -191.314 269.992" fill="#ffe0de"/>
  <path d="M -206.764 255.212 C -206.764 255.212 -203.334 266.922 -201.324 266.962 C -199.314 267.002 -193.004 264.872 -193.004 264.872 C -193.004 264.872 -190.284 267.652 -190.594 269.412 C -190.904 271.172 -202.084 277.412 -206.754 276.272 C -211.424 275.132 -213.684 258.992 -213.584 258.682 C -213.484 258.372 -206.764 255.212 -206.764 255.212 Z" style="fill: rgb(235, 203, 139);"/>
  <path d="M -194.824 259.322 C -195.368 258.91 -195.939 258.536 -196.534 258.202 C -197.054 257.962 -197.534 257.692 -197.994 257.432 C -198.407 257.169 -198.91 257.09 -199.384 257.212 C -200.391 257.954 -201.358 258.749 -202.284 259.592 C -202.844 259.992 -203.414 260.382 -204.004 260.752 C -204.332 260.951 -204.322 261.432 -203.984 261.617 C -203.871 261.679 -203.738 261.695 -203.614 261.662 C -203.324 261.592 -203.044 261.502 -202.764 261.402 C -202.776 261.578 -202.776 261.755 -202.764 261.932 C -202.875 262.541 -202.762 263.17 -202.444 263.702 C -202.411 263.768 -202.363 263.826 -202.304 263.872 L -202.674 264.012 C -203.274 264.232 -203.014 265.202 -202.404 265.012 L -198.964 263.752 C -198.128 263.535 -197.365 263.1 -196.754 262.492 C -196.475 262.225 -196.59 261.758 -196.959 261.65 C -197.052 261.623 -197.151 261.624 -197.244 261.652 C -197.494 261.712 -197.734 261.792 -197.974 261.872 C -197.424 261.122 -196.584 260.222 -196.294 260.472 C -195.621 260.981 -194.7 261.013 -193.994 260.552 C -193.454 260.012 -194.414 259.592 -194.824 259.322 Z" fill="#ffe0de"/>
  <path d="M -202.304 259.692 C -202.304 259.692 -205.874 260.162 -208.544 260.232 C -209.634 261.712 -210.624 263.232 -211.544 264.832 C -211.344 265.832 -211.264 266.832 -211.044 267.832 C -211.017 268.024 -211.017 268.219 -211.044 268.412 C -206.294 267.632 -201.234 265.672 -200.824 264.622 C -200.184 262.942 -202.304 259.692 -202.304 259.692 Z" style="fill: rgb(235, 203, 139);"/>
  <path d="M -221.754 236.592 C -221.949 235.751 -222.61 235.097 -223.454 234.912 C -225.934 234.252 -229.204 235.762 -229.944 238.322 C -230.549 241.176 -228.727 243.982 -225.874 244.592 C -222.974 244.848 -220.469 242.582 -220.434 239.672 C -220.442 238.509 -220.918 237.399 -221.754 236.592 Z" style="fill: rgb(10, 29, 35);"/>
  <path d="M -136.494 329.072 C -136.494 329.492 -136.824 334.512 -136.264 335.072 C -135.704 335.632 -134.264 338.492 -132.414 338.622 C -130.564 338.752 -128.904 338.382 -128.564 340.332 C -128.224 342.282 -138.884 342.942 -138.884 342.942 C -138.884 342.942 -140.004 338.482 -140.484 338.612 C -140.964 338.742 -140.984 343.592 -140.984 343.592 L -142.984 344.012 L -144.984 342.692 L -144.184 334.132 L -142.894 326.862" style="fill: rgb(94, 129, 172);"/>
  <path d="M -128.504 336.252 C -128.764 339.252 -128.614 343.332 -125.764 345.172 C -124.204 346.172 -120.914 345.252 -120.514 347.482 C -120.164 349.432 -130.824 350.152 -130.824 350.152 C -130.824 350.152 -131.974 345.692 -132.454 345.832 C -132.934 345.972 -132.884 350.762 -132.884 350.762 L -134.884 351.202 L -136.884 349.892 L -136.134 341.332 L -134.884 334.052" style="fill: rgb(94, 129, 172);"/>
  <path d="M -145.984 325.202 L -147.554 333.762 C -147.554 333.762 -145.094 336.292 -136.804 335.992 C -128.514 335.692 -136.804 320.852 -136.804 320.852" style="fill: rgb(180, 142, 173);"/>
  <ellipse cx="-156.724" cy="345.171" rx="11.8" ry="4.38" style="fill: rgb(143, 188, 187);"/>
  <polyline points="-158.714 325.552 -158.254 343.201 -154.734 343.201 -154.734 325.552" style="fill: rgb(143, 188, 187);"/>
  <path d="M -133.984 300.082 C -137.517 300.855 -141.08 301.452 -144.674 301.872 C -144.834 301.887 -144.982 301.966 -145.084 302.092 C -145.497 300.852 -145.85 299.588 -146.144 298.302 C -146.304 297.572 -147.424 297.882 -147.264 298.612 C -146.602 301.528 -145.619 304.362 -144.334 307.062 C -144.014 307.742 -143.014 307.152 -143.334 306.472 C -143.864 305.342 -144.334 304.202 -144.764 303.032 L -144.684 303.032 C -140.99 302.598 -137.324 301.985 -133.684 301.192 C -132.984 301.042 -133.294 299.922 -133.984 300.082 Z" fill="#008074"/>
  <path d="M -143.574 308.272 C -144.516 309.841 -145.728 311.232 -147.154 312.382 C -147.734 312.852 -146.904 313.672 -146.334 313.202 C -144.836 311.986 -143.564 310.517 -142.574 308.862 C -142.346 308.477 -142.621 307.99 -143.068 307.986 C -143.275 307.984 -143.468 308.093 -143.574 308.272 Z" fill="#008074"/>
  <path d="M -150.814 304.492 C -150.814 304.492 -141.564 297.072 -135.424 296.192 C -129.284 295.312 -126.074 301.982 -126.514 306.442 C -126.954 310.902 -141.654 313.342 -141.654 313.342" fill="#edbab9"/>
  <path d="M -145.884 306.962 C -144.684 305.852 -128.984 298.522 -123.454 301.872 C -117.924 305.222 -118.274 307.692 -118.974 311.772 C -119.674 315.852 -124.974 337.772 -124.974 337.772 C -128.988 339.313 -133.392 339.52 -137.534 338.362 L -135.984 322.092 L -156.984 310.662" style="fill: rgb(180, 142, 173);"/>
  <path d="M -157.324 280.732 C -156.494 281.342 -149.324 282.202 -147.824 285.512 C -146.324 288.822 -144.044 305.852 -144.044 305.852 C -144.044 305.852 -148.344 312.262 -155.794 309.982 C -158.004 309.302 -169.464 288.352 -169.794 286.182 C -170.584 280.512 -157.324 280.732 -157.324 280.732 Z" style="fill: rgb(163, 190, 140);"/>
  <path d="M -171.464 317.532 C -171.826 316.672 -172.123 315.786 -172.354 314.882 C -174.114 307.992 -175.264 282.122 -163.634 283.182 C -150.874 284.332 -155.184 316.282 -142.254 315.302 C -129.324 314.322 -124.024 317.682 -129.314 322.692 C -139.884 332.702 -164.984 332.932 -171.464 317.532 Z" fill="#5E81AC"/>
  <path d="M -152.744 271.492 C -152.664 272.012 -151.744 279.422 -153.934 281.092 C -156.124 282.762 -161.054 278.822 -161.174 276.862 C -161.294 274.902 -162.964 270.862 -160.864 269.802 C -158.764 268.742 -153.334 267.832 -152.744 271.492 Z" fill="#ffe0de"/>
  <path d="M -154.834 266.142 C -157.644 264.492 -162.274 264.902 -164.604 267.272 C -165.231 267.951 -165.775 268.703 -166.224 269.512 C -166.564 270.111 -166.942 270.689 -167.354 271.242 C -167.403 274.22 -166.27 277.096 -164.204 279.242 C -161.85 280.758 -159.065 281.461 -156.274 281.242 C -156.514 280.242 -156.724 279.242 -156.884 278.242 C -157.144 276.612 -157.534 274.622 -156.324 273.242 C -155.908 272.729 -155.234 272.503 -154.594 272.662 L -154.514 272.612 L -152.114 272.762 C -151.237 270.185 -152.399 267.357 -154.834 266.142 Z" style="fill: rgb(10, 29, 35);"/>
  <path d="M -166.274 270.592 C -168.944 265.792 -177.034 268.152 -177.634 273.232 C -177.881 275.662 -177.23 278.098 -175.804 280.082 C -173.884 282.482 -173.804 287.832 -177.124 291.732 C -180.444 295.632 -177.734 300.322 -173.884 301.982 C -170.034 303.642 -161.694 303.592 -161.984 296.852 C -162.274 290.112 -170.404 281.502 -170.284 276.852 C -170.164 272.202 -165.484 274.852 -165.484 274.852" style="fill: rgb(10, 29, 35);"/>
  <path d="M -164.984 270.782 C -164.984 269.677 -165.879 268.782 -166.984 268.782 C -168.077 268.808 -168.957 269.688 -168.984 270.782 C -169.055 271.583 -169.075 272.388 -169.044 273.192 C -169.044 274.731 -167.377 275.693 -166.044 274.924 C -165.425 274.566 -165.044 273.906 -165.044 273.192 C -165.075 272.388 -165.055 271.583 -164.984 270.782 Z" style="fill: rgb(94, 129, 172);"/>
  <path d="M -155.444 276.592 C -155.732 275.766 -156.357 275.101 -157.164 274.762 C -157.894 274.462 -158.894 274.372 -159.334 275.172 C -160.334 276.942 -157.914 278.172 -156.634 278.672 C -156.034 278.902 -155.774 277.932 -156.364 277.672 L -156.574 277.592 L -156.504 277.592 C -156.239 277.609 -156.017 277.396 -156.024 277.132 C -155.694 277.272 -155.294 277.032 -155.444 276.592 Z" fill="#ffe0de"/>
  <polygon points="-135.974 273.532 -115.344 286.452 -118.764 301.002 -138.034 287.842 -135.974 273.532" style="fill: rgb(129, 161, 193);"/>
  <path d="M -138.034 287.842 C -138.034 287.842 -148.564 293.092 -148.444 293.232 C -148.324 293.372 -129.824 307.182 -129.824 307.182 L -118.764 301.002 Z" style="fill: rgb(94, 129, 172);"/>
  <path d="M -133.604 298.942 C -133.604 298.942 -130.804 296.432 -130.384 296.232 C -129.73 296.107 -129.057 296.296 -128.564 296.742 C -128.114 297.162 -127.484 297.012 -126.984 297.552 C -126.484 298.092 -125.214 299.992 -125.574 300.492 C -125.934 300.992 -126.944 299.782 -127.284 299.492 C -127.624 299.202 -127.284 300.492 -127.764 301.262 C -128.244 302.032 -131.154 302.762 -131.934 302.612" fill="#ffe0de"/>
  <path d="M -147.354 287.842 C -147.354 287.842 -143.924 299.592 -141.924 299.592 C -139.924 299.592 -133.604 297.502 -133.604 297.502 C -133.604 297.502 -130.884 300.282 -131.194 302.042 C -131.504 303.802 -142.684 310.042 -147.354 308.902 C -152.024 307.762 -154.284 291.622 -154.184 291.312 C -154.084 291.002 -147.354 287.842 -147.354 287.842 Z" style="fill: rgb(163, 190, 140);"/>
  <path d="M -135.414 291.942 C -135.958 291.53 -136.529 291.156 -137.124 290.822 C -137.644 290.582 -138.124 290.312 -138.584 290.052 C -138.997 289.789 -139.5 289.71 -139.974 289.832 C -140.985 290.587 -141.956 291.395 -142.884 292.252 C -143.444 292.652 -144.014 293.042 -144.604 293.412 C -144.932 293.611 -144.922 294.092 -144.584 294.277 C -144.471 294.339 -144.338 294.355 -144.214 294.322 C -143.924 294.252 -143.644 294.162 -143.364 294.062 C -143.376 294.238 -143.376 294.415 -143.364 294.592 C -143.475 295.201 -143.362 295.83 -143.044 296.362 C -143.011 296.428 -142.963 296.486 -142.904 296.532 L -143.274 296.672 C -143.874 296.892 -143.614 297.862 -143.004 297.672 L -139.564 296.412 C -138.728 296.195 -137.965 295.76 -137.354 295.152 C -137.075 294.885 -137.19 294.418 -137.559 294.31 C -137.652 294.283 -137.751 294.284 -137.844 294.312 C -138.094 294.372 -138.334 294.452 -138.574 294.532 C -138.024 293.782 -137.184 292.882 -136.894 293.132 C -136.221 293.641 -135.3 293.673 -134.594 293.212 C -134.044 292.592 -134.984 292.192 -135.414 291.942 Z" fill="#ffe0de"/>
  <path d="M -142.894 292.312 C -142.894 292.312 -146.464 292.782 -149.134 292.852 C -150.224 294.332 -151.214 295.852 -152.134 297.452 C -151.934 298.452 -151.854 299.452 -151.634 300.452 C -151.607 300.644 -151.607 300.839 -151.634 301.032 C -146.884 300.252 -141.824 298.292 -141.414 297.242 C -140.774 295.592 -142.894 292.312 -142.894 292.312 Z" style="fill: rgb(163, 190, 140);"/>
  <path d="M -96.784 162.372 L -102.174 161.322 L -102.254 161.532 C -102.566 161.348 -102.903 161.21 -103.254 161.122 C -104.324 160.821 -105.444 161.403 -105.814 162.452 C -105.967 162.857 -105.967 163.306 -105.814 163.712 C -106.16 164.07 -106.348 164.553 -106.334 165.052 C -106.336 165.579 -106.135 166.087 -105.774 166.472 C -106.123 167.095 -106.017 167.874 -105.514 168.382 C -104.865 168.92 -104.079 169.267 -103.244 169.382 C -101.824 172.162 -98.384 175.832 -97.334 175.252 C -95.964 174.492 -93.974 170.902 -93.974 170.902 Z" fill="#e89c89"/>
  <polyline points="-98.184 164.282 -122.764 128.422 -123.734 128.842 -97.284 171.632" style="fill: rgb(208, 135, 112);"/>
  <path d="M -92.044 170.182 C -92.044 170.182 -92.984 162.592 -94.404 161.732 C -95.824 160.872 -100.474 158.952 -101.344 159.962 C -102.214 160.972 -103.014 162.962 -102.174 163.752 C -101.334 164.542 -99.714 162.592 -99.714 162.592 L -98.304 163.592 C -98.304 163.592 -100.144 165.182 -100.034 168.972 C -99.909 171.332 -98.932 173.567 -97.284 175.262 Z" fill="#ffb7a2"/>
  <path d="M -72.794 205.712 L -75.164 170.182 C -76.164 171.052 -79.464 191.182 -81.104 204.882 C -78.324 205.032 -75.564 205.362 -72.794 205.712 Z" style="fill: rgb(129, 161, 193);"/>
  <path d="M -18.584 169.772 L -17.984 168.692 C -18.409 168.437 -18.583 167.909 -18.394 167.452 C -17.884 166.282 -17.344 165.132 -16.804 163.972 C -16.837 163.83 -16.837 163.683 -16.804 163.542 C -16.097 160.937 -15.8 158.238 -15.924 155.542 C -16.154 153.382 -16.804 151.312 -17.014 149.152 C -17.094 148.382 -16.204 148.152 -15.634 148.362 C -15.142 148.598 -14.754 149.008 -14.544 149.512 C -13.875 150.484 -13.447 151.601 -13.294 152.772 C -13.245 152.269 -13.12 151.777 -12.924 151.312 C -12.777 150.725 -12.634 150.138 -12.494 149.552 C -12.288 148.62 -11.979 147.715 -11.574 146.852 C -11.164 146.042 -10.244 145.672 -9.784 146.202 C -9.084 147.002 -9.784 148.452 -9.894 149.382 C -10.004 150.312 -10.174 151.132 -10.414 152.072 C -10.054 151.202 -9.314 149.682 -8.834 148.632 C -8.464 147.822 -7.414 145.182 -6.254 145.542 C -5.094 145.902 -5.644 147.702 -5.964 148.542 L -6.874 150.992 C -7.144 151.722 -7.444 152.672 -7.754 153.342 C -7.754 153.342 -6.534 151.562 -5.924 150.612 C -5.434 149.862 -4.924 148.772 -3.814 149.102 C -3.104 149.322 -3.154 150.372 -3.484 151.002 C -4.364 152.672 -5.344 154.272 -6.364 155.842 C -5.704 155.232 -5.074 154.602 -4.364 154.012 C -3.726 153.58 -2.86 154.001 -2.806 154.769 C -2.805 154.783 -2.804 154.797 -2.804 154.812 C -2.795 154.986 -2.844 155.158 -2.944 155.302 L -11.384 167.432 C -12.209 169.361 -13.371 171.128 -14.814 172.652 C -15.624 173.502 -16.924 172.212 -16.104 171.362 L -15.994 171.232 C -16.024 171.187 -16.051 171.14 -16.074 171.092 C -16.35 171.028 -16.586 170.85 -16.724 170.602 L -16.784 170.602 C -16.872 170.661 -16.97 170.705 -17.074 170.732 C -17.551 171.244 -18.404 171.047 -18.609 170.377 C -18.67 170.178 -18.661 169.965 -18.584 169.772 Z" fill="#ffb7a2"/>
  <path d="M -12.084 153.512 C -10.633 154.664 -9.856 156.466 -10.014 158.312 C -10.014 158.722 -10.694 158.732 -10.664 158.312 C -10.508 156.636 -11.217 154.997 -12.544 153.962 C -12.874 153.712 -12.414 153.262 -12.084 153.512 Z" fill="#42342d"/>
  <path d="M -11.194 152.522 C -10.727 150.822 -10.337 149.102 -10.024 147.362 C -9.954 146.952 -9.324 147.122 -9.404 147.532 C -9.717 149.265 -10.107 150.985 -10.574 152.692 C -10.639 152.93 -10.938 153.008 -11.112 152.832 C -11.193 152.751 -11.224 152.632 -11.194 152.522 Z" fill="#42342d"/>
  <path d="M -8.464 153.952 C -7.59 152.058 -6.877 150.095 -6.334 148.082 C -6.268 147.843 -5.969 147.765 -5.795 147.941 C -5.714 148.022 -5.683 148.141 -5.714 148.252 C -6.274 150.309 -7.007 152.316 -7.904 154.252 C -8.084 154.662 -8.634 154.332 -8.464 153.952 Z" fill="#42342d"/>
  <path d="M -7.454 156.492 C -6.075 154.902 -4.909 153.141 -3.984 151.252 C -3.804 150.882 -3.244 151.252 -3.424 151.582 C -4.374 153.518 -5.57 155.323 -6.984 156.952 C -7.274 157.272 -7.734 156.812 -7.454 156.492 Z" fill="#42342d"/>
  <path d="M -36.664 233.502 C -39.03 225.584 -42.151 217.913 -45.984 210.592 L -71.504 210.352 C -72.064 213.832 -73.064 217.232 -73.684 220.762 C -74.351 224.512 -74.599 228.326 -74.424 232.132 C -67.214 236.192 -57.744 241.702 -50.894 245.642 L -31.894 256.542 C -33.504 248.982 -34.554 240.972 -36.664 233.502 Z" style="fill: rgb(94, 129, 172);"/>
  <path d="M -44.664 187.742 C -45.037 182.142 -45.56 176.548 -46.234 170.962 C -49.424 167.012 -53.804 163.962 -58.614 163.322 C -63.424 162.682 -70.434 163.942 -73.714 167.812 C -76.814 171.502 -76.294 176.812 -76.104 181.242 C -75.994 183.942 -75.854 186.642 -75.704 189.342 C -74.294 196.592 -72.254 203.702 -71.824 211.102 C -64.734 214.422 -54.034 212.722 -46.024 210.562 C -45.554 202.952 -44.984 195.352 -44.664 187.742 Z" style="fill: rgb(129, 161, 193);"/>
  <path d="M -57.984 164.062 C -54.155 164.254 -50.437 165.41 -47.174 167.422 C -44.694 169.042 -43.274 171.662 -40.594 173.002 C -36.994 174.812 -31.714 174.792 -28.754 171.742 C -27.156 169.994 -25.654 168.161 -24.254 166.252 C -23.144 164.832 -18.584 157.432 -16.184 158.342 C -13.374 159.402 -9.324 163.342 -9.184 165.592 C -9.044 167.842 -20.904 191.272 -31.414 192.922 C -37.968 193.796 -44.621 192.322 -50.194 188.762" style="fill: rgb(129, 161, 193);"/>
  <path d="M -55.404 159.952 L -55.404 166.662 C -58.042 167.48 -60.866 167.48 -63.504 166.662 L -63.504 160.592" fill="#fcaa97"/>
  <path d="M -75.654 190.592 C -75.654 190.592 -90.264 169.702 -92.044 170.202 C -93.824 170.702 -99.464 173.492 -99.044 175.752 C -98.624 178.012 -87.104 211.232 -71.394 209.302" style="fill: rgb(129, 161, 193);"/>
  <path d="M -55.254 162.792 C -55.78 164.065 -56.536 165.231 -57.484 166.232 C -58.484 167.362 -59.924 166.992 -61.484 167.082 L -60.424 175.272 L -53.334 165.272 Z" style="fill: rgb(94, 129, 172);"/>
  <path d="M -61.524 167.082 L -64.984 174.682 L -65.524 167.592 L -63.214 162.992 C -63.214 162.992 -63.984 166.872 -61.524 167.082 Z" style="fill: rgb(94, 129, 172);"/>
  <path d="M -69.424 144.592 C -69.894 144.712 -72.864 164.692 -64.574 164.852 C -56.284 165.012 -54.684 158.492 -54.434 156.852 C -54.184 155.212 -56.824 150.112 -57.634 148.212 C -58.444 146.312 -67.394 144.042 -69.424 144.592 Z" fill="#ffb7a2"/>
  <path d="M -70.454 142.522 C -67.954 138.012 -58.274 136.982 -51.544 143.162 C -49.805 144.992 -48.832 147.417 -48.824 149.942 C -49.178 155.028 -52.231 159.535 -56.824 161.752 C -56.824 161.752 -56.824 161.752 -56.824 161.672 C -56.824 161.592 -56.824 161.422 -56.754 161.302 C -56.684 161.182 -56.754 161.122 -56.704 161.032 C -55.994 157.542 -56.154 153.142 -57.804 150.032 C -59.454 146.922 -62.804 146.032 -66.054 145.482 C -67.107 145.205 -68.197 145.097 -69.284 145.162 L -70.354 150.292 C -71.975 147.966 -72.015 144.888 -70.454 142.522 Z" style="fill: rgb(235, 203, 139);"/>
  <circle cx="301.32" cy="62.39" r="6.38" transform="matrix(0.069408, -0.997588, 0.997588, 0.069408, -128.794052, 441.251648)" style="fill: rgb(235, 203, 139);"/>
  <path d="M -70.394 148.672 L -62.534 148.672 L -61.804 146.312 L -61.124 149.242 L -58.884 149.382 C -58.884 149.382 -58.774 161.452 -57.054 161.722 C -55.334 161.992 -52.924 156.802 -52.664 153.722 C -52.404 150.642 -54.074 144.152 -59.744 142.392 C -66.884 140.232 -70.064 143.082 -70.394 148.672 Z" style="fill: rgb(235, 203, 139);"/>
  <path d="M -74.984 178.532 C -74.924 177.852 -75.984 177.862 -76.034 178.532 C -77.114 190.242 -71.984 201.282 -71.614 212.892 C -71.614 213.572 -70.534 213.572 -70.564 212.892 C -70.984 201.282 -76.094 190.232 -74.984 178.532 Z" style="fill: rgb(94, 129, 172);"/>
  <path d="M -42.604 191.172 C -44.931 190.734 -47.089 189.653 -48.834 188.052 C -49.334 187.592 -50.084 188.342 -49.584 188.802 C -47.709 190.533 -45.389 191.708 -42.884 192.192 C -42.224 192.322 -41.984 191.302 -42.604 191.172 Z" style="fill: rgb(94, 129, 172);"/>
  <path d="M -162.264 129.962 L -126.844 148.902 C -125.144 149.812 -123.624 147.222 -125.334 146.312 L -160.744 127.372 C -162.444 126.462 -163.964 129.052 -162.254 129.962 Z" style="fill: rgb(163, 190, 140);"/>
  <path d="M -162.264 141.952 L -126.844 160.892 C -125.144 161.802 -123.624 159.212 -125.334 158.302 L -160.744 139.362 C -162.444 138.452 -163.964 141.042 -162.254 141.952 Z" style="fill: rgb(163, 190, 140);"/>
  <ellipse cx="192.74" cy="84.3" rx="7.16" ry="11.26" transform="matrix(0.947991, -0.318298, 0.318298, 0.947991, -363.793762, 148.311462)" fill="#5E81AC"/>
  <ellipse cx="212.62" cy="95.44" rx="7.16" ry="11.26" transform="matrix(0.947991, -0.318298, 0.318298, 0.947991, -366.303741, 155.211487)" fill="#5E81AC"/>
</svg>